# Wavefront OBJ exported by MilkShape 3D

mtllib msfigureStep2.mtl

v -0.148262 0.574500 0.043345
v -0.148262 0.262000 0.043345
v 0.156738 0.574500 0.043345
v 0.156738 0.262000 0.043345
v 0.156738 0.577000 -0.114155
v 0.156738 0.264500 -0.114155
v -0.148262 0.577000 -0.114155
v -0.148262 0.264500 -0.114155
v 0.022988 0.572000 -0.036655
v 0.018801 0.572000 -0.021030
v -0.008262 0.572000 -0.036655
v 0.022988 0.612000 -0.036655
v -0.008262 0.612000 -0.036655
v 0.018801 0.612000 -0.021030
v 0.007363 0.572000 -0.009592
v 0.007363 0.612000 -0.009592
v -0.008262 0.572000 -0.005405
v -0.008262 0.612000 -0.005405
v -0.023887 0.572000 -0.009592
v -0.023887 0.612000 -0.009592
v -0.035325 0.572000 -0.021030
v -0.035325 0.612000 -0.021030
v -0.039512 0.572000 -0.036655
v -0.039512 0.612000 -0.036655
v -0.035325 0.572000 -0.052280
v -0.035325 0.612000 -0.052280
v -0.023887 0.572000 -0.063718
v -0.023887 0.612000 -0.063718
v -0.008262 0.572000 -0.067905
v -0.008262 0.612000 -0.067905
v 0.007363 0.572000 -0.063718
v 0.007363 0.612000 -0.063718
v 0.018801 0.572000 -0.052280
v 0.018801 0.612000 -0.052280
v -0.003262 0.604500 -0.040405
v 0.026738 0.612538 -0.040405
v 0.022719 0.612538 -0.025405
v -0.003262 0.724500 -0.040405
v 0.022719 0.716461 -0.025405
v 0.026738 0.716461 -0.040405
v 0.011738 0.612538 -0.014424
v 0.011738 0.716461 -0.014424
v -0.003262 0.612538 -0.010405
v -0.003262 0.716461 -0.010405
v -0.018262 0.612538 -0.014424
v -0.018262 0.716461 -0.014424
v -0.029243 0.612538 -0.025405
v -0.029243 0.716461 -0.025405
v -0.033262 0.612538 -0.040405
v -0.033262 0.716461 -0.040405
v -0.029243 0.612538 -0.055405
v -0.029243 0.716461 -0.055405
v -0.018262 0.612538 -0.066386
v -0.018262 0.716461 -0.066386
v -0.003262 0.612538 -0.070405
v -0.003262 0.716461 -0.070405
v 0.011738 0.612538 -0.066386
v 0.011738 0.716461 -0.066386
v 0.022719 0.612538 -0.055405
v 0.022719 0.716461 -0.055405
v 0.048700 0.634500 -0.040405
v 0.041738 0.634500 -0.014424
v 0.022719 0.634500 0.004595
v -0.003262 0.634500 0.011557
v -0.029243 0.634500 0.004595
v -0.048262 0.634500 -0.014424
v -0.055224 0.634500 -0.040405
v -0.048262 0.634500 -0.066386
v -0.029243 0.634500 -0.085405
v -0.003262 0.634500 -0.092367
v 0.022719 0.634500 -0.085405
v 0.041738 0.634500 -0.066386
v 0.056738 0.664500 -0.040405
v 0.048700 0.664500 -0.010405
v 0.026738 0.664500 0.011557
v -0.003262 0.664500 0.019595
v -0.033262 0.664500 0.011557
v -0.055224 0.664500 -0.010405
v -0.063262 0.664500 -0.040405
v -0.055224 0.664500 -0.070405
v -0.033262 0.664500 -0.092367
v -0.003262 0.664500 -0.100405
v 0.026738 0.664500 -0.092367
v 0.048700 0.664500 -0.070405
v 0.048700 0.694500 -0.040405
v 0.041738 0.694500 -0.014424
v 0.022719 0.694500 0.004595
v -0.003262 0.694500 0.011557
v -0.029243 0.694500 0.004595
v -0.048262 0.694500 -0.014424
v -0.055224 0.694500 -0.040405
v -0.048262 0.694500 -0.066386
v -0.029243 0.694500 -0.085405
v -0.003262 0.694500 -0.092367
v 0.022719 0.694500 -0.085405
v 0.041738 0.694500 -0.066386
v 0.179238 0.570494 -0.051193
v 0.179238 0.332159 0.080917
v 0.244238 0.570494 -0.051193
v 0.244238 0.332159 0.080917
v 0.244238 0.532421 -0.104408
v 0.244238 0.294087 0.027703
v 0.179238 0.532421 -0.104408
v 0.179238 0.294087 0.027703
v -0.238262 0.529272 -0.014100
v -0.238262 0.333252 -0.203394
v -0.173262 0.529272 -0.014100
v -0.173262 0.333252 -0.203394
v -0.173262 0.569030 -0.066067
v -0.173262 0.373010 -0.255361
v -0.238262 0.569030 -0.066067
v -0.238262 0.373010 -0.255361
v -0.120762 0.291131 -0.004096
v -0.120762 0.059691 0.108785
v -0.040762 0.291131 -0.004096
v -0.040762 0.059691 0.108785
v -0.040762 0.258308 -0.077095
v -0.040762 0.026869 0.035785
v -0.120762 0.258308 -0.077095
v -0.120762 0.026869 0.035785
v 0.045738 0.273899 0.007287
v 0.045738 0.029002 -0.072285
v 0.125738 0.273899 0.007287
v 0.125738 0.029002 -0.072285
v 0.125738 0.300998 -0.068025
v 0.125738 0.056101 -0.147597
v 0.045738 0.300998 -0.068025
v 0.045738 0.056101 -0.147597
v -0.181537 0.509053 -0.080543
v -0.181600 0.502277 -0.068319
v -0.182008 0.528472 -0.061790
v -0.129545 0.502208 -0.062905
v -0.130016 0.529203 -0.062905
v -0.129608 0.505824 -0.049405
v -0.155541 0.520103 -0.086118
v -0.155604 0.502603 -0.068004
v -0.181772 0.502520 -0.054346
v -0.129780 0.515705 -0.039522
v -0.155776 0.502747 -0.065437
v -0.182008 0.509716 -0.042368
v -0.130016 0.529203 -0.035905
v -0.156012 0.510043 -0.042053
v -0.182244 0.521939 -0.035593
v -0.130252 0.542701 -0.039522
v -0.156248 0.522265 -0.035278
v -0.182416 0.535912 -0.035838
v -0.130424 0.552583 -0.049405
v -0.156420 0.536239 -0.035523
v -0.182479 0.547891 -0.043037
v -0.130487 0.556199 -0.062905
v -0.156483 0.548218 -0.042722
v -0.182416 0.554668 -0.055261
v -0.130424 0.552583 -0.076405
v -0.156420 0.554994 -0.054945
v -0.182244 0.554425 -0.069234
v -0.130252 0.542701 -0.086288
v -0.156248 0.554751 -0.068918
v -0.182008 0.547228 -0.081212
v -0.130016 0.529203 -0.089905
v -0.156012 0.547555 -0.080897
v -0.181772 0.535006 -0.087986
v -0.129780 0.515705 -0.086288
v -0.155776 0.546692 -0.081431
v -0.181600 0.521033 -0.087742
v -0.129608 0.505824 -0.076405
v -0.155604 0.521359 -0.087426
v 0.136463 0.499300 -0.059905
v 0.136400 0.502917 -0.046405
v 0.135992 0.526296 -0.059905
v 0.188455 0.503728 -0.049342
v 0.187984 0.527339 -0.062430
v 0.188392 0.513436 -0.039289
v 0.162459 0.511858 -0.039995
v 0.162396 0.513039 -0.039069
v 0.136228 0.512798 -0.036522
v 0.188220 0.526869 -0.035435
v 0.162224 0.538446 -0.035305
v 0.135992 0.526296 -0.032905
v 0.187984 0.540429 -0.038816
v 0.161988 0.540032 -0.038596
v 0.135756 0.539794 -0.036522
v 0.187748 0.550480 -0.048523
v 0.161752 0.555799 -0.055985
v 0.135584 0.549675 -0.046405
v 0.187576 0.554331 -0.061957
v 0.161580 0.553934 -0.061737
v 0.135521 0.553292 -0.059905
v 0.187513 0.550950 -0.075518
v 0.161517 0.546563 -0.081355
v 0.135584 0.549675 -0.073405
v 0.187576 0.541242 -0.085572
v 0.161580 0.540845 -0.085352
v 0.135756 0.539794 -0.083288
v 0.187748 0.527808 -0.089425
v 0.161752 0.519974 -0.086045
v 0.135992 0.526296 -0.086905
v 0.187984 0.514249 -0.086045
v 0.161988 0.513852 -0.085825
v 0.136228 0.512798 -0.083288
v 0.188220 0.504197 -0.076337
v 0.162224 0.502622 -0.065365
v 0.136400 0.502917 -0.073405
v 0.188392 0.500346 -0.062903
v 0.162396 0.499949 -0.062683
# 204 vertices

vt 0.000000 1.000000
vt 0.000000 0.000000
vt 1.000000 1.000000
vt 1.000000 0.000000
vt 0.083333 0.000000
vt 0.083333 1.000000
vt 0.166667 1.000000
vt 0.166667 0.000000
vt 0.250000 0.000000
vt 0.250000 1.000000
vt 0.333333 1.000000
vt 0.333333 0.000000
vt 0.416667 0.000000
vt 0.416667 1.000000
vt 0.500000 1.000000
vt 0.500000 0.000000
vt 0.583333 0.000000
vt 0.583333 1.000000
vt 0.666667 1.000000
vt 0.666667 0.000000
vt 0.750000 0.000000
vt 0.750000 1.000000
vt 0.833333 1.000000
vt 0.833333 0.000000
vt 0.916667 0.000000
vt 0.916667 1.000000
vt 0.000000 0.166667
vt 0.083333 0.166667
vt 0.083333 0.833333
vt 0.000000 0.833333
vt 0.166667 0.166667
vt 0.166667 0.833333
vt 0.250000 0.166667
vt 0.250000 0.833333
vt 0.333333 0.166667
vt 0.333333 0.833333
vt 0.416667 0.166667
vt 0.416667 0.833333
vt 0.500000 0.166667
vt 0.500000 0.833333
vt 0.583333 0.166667
vt 0.583333 0.833333
vt 0.666667 0.166667
vt 0.666667 0.833333
vt 0.750000 0.166667
vt 0.750000 0.833333
vt 0.833333 0.166667
vt 0.833333 0.833333
vt 0.916667 0.166667
vt 0.916667 0.833333
vt 1.000000 0.166667
vt 1.000000 0.833333
vt 0.000000 0.333333
vt 0.083333 0.333333
vt 0.166667 0.333333
vt 0.250000 0.333333
vt 0.333333 0.333333
vt 0.416667 0.333333
vt 0.500000 0.333333
vt 0.583333 0.333333
vt 0.666667 0.333333
vt 0.750000 0.333333
vt 0.833333 0.333333
vt 0.916667 0.333333
vt 1.000000 0.333333
vt 0.000000 0.500000
vt 0.083333 0.500000
vt 0.166667 0.500000
vt 0.250000 0.500000
vt 0.333333 0.500000
vt 0.416667 0.500000
vt 0.500000 0.500000
vt 0.583333 0.500000
vt 0.666667 0.500000
vt 0.750000 0.500000
vt 0.833333 0.500000
vt 0.916667 0.500000
vt 1.000000 0.500000
vt 0.000000 0.666667
vt 0.083333 0.666667
vt 0.166667 0.666667
vt 0.250000 0.666667
vt 0.333333 0.666667
vt 0.416667 0.666667
vt 0.500000 0.666667
vt 0.583333 0.666667
vt 0.666667 0.666667
vt 0.750000 0.666667
vt 0.833333 0.666667
vt 0.916667 0.666667
vt 1.000000 0.666667
# 91 texture coordinates

vn 0.000000 0.000000 1.000000
vn 1.000000 0.000000 0.000000
vn 0.000000 0.000000 -1.000000
vn -1.000000 0.000000 0.000000
vn 0.000000 0.999874 0.015870
vn 0.000000 -0.999874 -0.015871
vn 0.000000 -1.000000 0.000000
vn 0.000000 1.000000 0.000000
vn 0.866025 0.000000 0.500000
vn 0.500000 0.000000 0.866025
vn -0.500000 0.000000 0.866025
vn -0.866025 0.000000 0.500000
vn -0.866025 0.000000 -0.500000
vn -0.500000 0.000000 -0.866025
vn 0.500000 0.000000 -0.866025
vn 0.866025 0.000000 -0.500000
vn 0.573584 -0.819147 0.000000
vn 0.431480 -0.867045 0.249115
vn 0.431481 0.867044 0.249116
vn 0.573583 0.819147 0.000000
vn 0.286791 -0.819147 0.496738
vn 0.286791 0.819148 0.496737
vn -0.000000 -0.867045 0.498230
vn -0.000000 0.867044 0.498231
vn -0.286791 -0.819147 0.496738
vn -0.286791 0.819148 0.496737
vn -0.431480 -0.867045 0.249115
vn -0.431481 0.867044 0.249115
vn -0.573584 -0.819147 0.000000
vn -0.573583 0.819147 0.000000
vn -0.431480 -0.867045 -0.249116
vn -0.431481 0.867044 -0.249116
vn -0.286792 -0.819147 -0.496738
vn -0.286791 0.819147 -0.496738
vn -0.000000 -0.867045 -0.498230
vn -0.000000 0.867044 -0.498231
vn 0.286792 -0.819147 -0.496738
vn 0.286791 0.819147 -0.496738
vn 0.431480 -0.867045 -0.249116
vn 0.431481 0.867044 -0.249116
vn 0.865034 -0.501713 0.000000
vn 0.749142 -0.501713 0.432517
vn 0.432517 -0.501713 0.749142
vn -0.000000 -0.501713 0.865034
vn -0.432517 -0.501713 0.749142
vn -0.749142 -0.501713 0.432517
vn -0.865034 -0.501713 0.000000
vn -0.749142 -0.501713 -0.432517
vn -0.432517 -0.501713 -0.749142
vn -0.000000 -0.501713 -0.865034
vn 0.432517 -0.501713 -0.749142
vn 0.749142 -0.501713 -0.432517
vn 0.865033 0.501715 0.000000
vn 0.749140 0.501715 0.432516
vn 0.432516 0.501715 0.749140
vn -0.000000 0.501715 0.865033
vn -0.432516 0.501715 0.749140
vn -0.749141 0.501715 0.432516
vn -0.865033 0.501715 0.000000
vn -0.749141 0.501715 -0.432516
vn -0.432516 0.501715 -0.749141
vn -0.000000 0.501715 -0.865033
vn 0.432516 0.501715 -0.749141
vn 0.749141 0.501715 -0.432516
vn 0.000000 0.484809 0.874620
vn 0.000000 -0.484810 -0.874620
vn 0.000000 0.813284 -0.581867
vn 0.000000 -0.813285 0.581866
vn 0.000000 -0.694658 0.719340
vn 0.000000 0.694659 -0.719340
vn 0.000000 0.794223 0.607626
vn 0.000000 -0.794222 -0.607628
vn 0.000000 0.438371 0.898794
vn 0.000000 -0.438371 -0.898794
vn 0.000000 0.912048 -0.410084
vn 0.000000 -0.912048 0.410083
vn 0.000000 -0.309017 0.951056
vn 0.000000 0.309017 -0.951056
vn 0.000000 0.940941 0.338571
vn 0.000000 -0.940941 -0.338571
vn -0.999848 -0.012555 -0.012124
vn 0.999848 0.017451 0.000000
vn 0.087342 -0.716211 -0.692396
vn 0.139632 -0.711712 -0.688454
vn 0.039942 -0.992443 -0.116025
vn 0.015123 -0.970201 -0.241829
vn -0.067711 -0.921644 -0.382084
vn -0.234773 -0.848082 0.475015
vn 0.047394 -0.972721 0.227085
vn 0.183929 -0.965475 0.184468
vn 0.039737 -0.812545 0.581543
vn 0.049954 -0.603030 0.796153
vn -0.220426 -0.013859 0.975305
vn -0.008726 -0.241977 0.970243
vn 0.155540 -0.229889 0.960707
vn 0.046129 0.156227 0.986643
vn 0.006947 0.438228 0.898837
vn -0.015119 0.275542 0.961170
vn -0.257358 0.829849 0.495094
vn -0.017454 0.719229 0.694554
vn 0.138568 0.717485 0.682653
vn 0.003504 0.932503 0.361146
vn -0.017189 0.997208 0.072664
vn -0.015115 0.970201 0.241830
vn -0.307692 0.829583 -0.465959
vn -0.008726 0.961207 -0.275690
vn 0.118823 0.953200 -0.278012
vn -0.043305 0.780672 -0.623439
vn -0.007866 0.585917 -0.810333
vn -0.321989 0.008588 -0.946705
vn 0.035159 0.313533 -0.948926
vn 0.194117 0.399027 -0.896156
vn 0.011778 -0.051427 -0.998607
vn -0.000832 -0.449944 -0.893057
vn 0.015113 -0.275539 -0.961171
vn -0.286109 -0.824794 -0.487706
vn -0.999848 -0.017453 0.000000
vn 0.999848 0.015266 -0.008462
vn 0.021147 -0.941897 0.335234
vn -0.058943 -0.769561 0.635847
vn 0.032515 -0.559180 0.828408
vn 0.189695 -0.847054 0.496503
vn 0.004160 -0.824319 0.566111
vn 0.015117 -0.514925 0.857102
vn -0.054630 -0.144579 0.987984
vn -0.083278 0.404938 0.910544
vn 0.098905 0.196404 0.975522
vn 0.017458 0.571401 0.820485
vn 0.208567 0.010424 0.977952
vn -0.068619 0.756594 0.650274
vn -0.106644 0.962394 0.249851
vn 0.060179 0.922964 0.380153
vn -0.031998 0.998813 -0.036720
vn 0.146882 0.860361 0.488062
vn -0.015118 0.999732 0.017525
vn -0.089886 0.948626 -0.303364
vn -0.136259 0.787725 -0.600768
vn -0.006730 0.835210 -0.549891
vn -0.070612 0.523062 -0.849364
vn 0.062890 0.863113 -0.501080
vn -0.015113 0.514919 -0.857106
vn -0.036889 0.252996 -0.966764
vn -0.118175 -0.004220 -0.992984
vn -0.069341 0.006408 -0.997572
vn -0.046891 -0.388674 -0.920181
vn 0.041191 -0.000661 -0.999151
vn 0.085164 -0.660882 -0.745642
vn -0.048888 -0.800796 -0.596939
vn -0.096334 -0.828078 -0.552274
vn 0.023846 -0.977772 -0.208310
vn 0.106037 -0.861991 -0.495709
vn 0.015128 -0.999732 -0.017519
# 152 normals

g Regroup01
usemtl Material02
s 1
f 1/1/1 2/2/1 3/3/1
f 2/2/1 4/4/1 3/3/1
s 2
f 3/1/2 4/2/2 5/3/2
f 4/2/2 6/4/2 5/3/2
s 1
f 5/1/3 6/2/3 7/3/3
f 6/2/3 8/4/3 7/3/3
s 2
f 7/1/4 8/2/4 1/3/4
f 8/2/4 2/4/4 1/3/4
s 3
f 7/1/5 1/2/5 5/3/5
f 1/2/5 3/4/5 5/3/5
f 2/1/6 8/2/6 4/3/6
f 8/2/6 6/4/6 4/3/6
s 2
f 9/1/7 10/1/7 11/1/7
f 12/1/8 13/1/8 14/1/8
s 1
f 9/2/2 12/1/2 10/5/9
f 12/1/2 14/6/9 10/5/9
s 2
f 10/1/7 15/1/7 11/1/7
f 14/1/8 13/1/8 16/1/8
s 1
f 10/5/9 14/6/9 16/7/10
f 10/5/9 16/7/10 15/8/10
s 2
f 15/1/7 17/1/7 11/1/7
f 16/1/8 13/1/8 18/1/8
s 1
f 15/8/10 16/7/10 17/9/1
f 16/7/10 18/10/1 17/9/1
s 2
f 17/1/7 19/1/7 11/1/7
f 18/1/8 13/1/8 20/1/8
s 1
f 17/9/1 18/10/1 20/11/11
f 17/9/1 20/11/11 19/12/11
s 2
f 19/1/7 21/1/7 11/1/7
f 20/1/8 13/1/8 22/1/8
s 1
f 19/12/11 20/11/11 21/13/12
f 20/11/11 22/14/12 21/13/12
s 2
f 21/1/7 23/1/7 11/1/7
f 22/1/8 13/1/8 24/1/8
s 1
f 21/13/12 22/14/12 24/15/4
f 21/13/12 24/15/4 23/16/4
s 2
f 23/1/7 25/1/7 11/1/7
f 24/1/8 13/1/8 26/1/8
s 1
f 23/16/4 24/15/4 25/17/13
f 24/15/4 26/18/13 25/17/13
s 2
f 25/1/7 27/1/7 11/1/7
f 26/1/8 13/1/8 28/1/8
s 1
f 25/17/13 26/18/13 28/19/14
f 25/17/13 28/19/14 27/20/14
s 2
f 27/1/7 29/1/7 11/1/7
f 28/1/8 13/1/8 30/1/8
s 1
f 27/20/14 28/19/14 29/21/3
f 28/19/14 30/22/3 29/21/3
s 2
f 29/1/7 31/1/7 11/1/7
f 30/1/8 13/1/8 32/1/8
s 1
f 29/21/3 30/22/3 32/23/15
f 29/21/3 32/23/15 31/24/15
s 2
f 31/1/7 33/1/7 11/1/7
f 32/1/8 13/1/8 34/1/8
s 1
f 31/24/15 32/23/15 33/25/16
f 32/23/15 34/26/16 33/25/16
s 2
f 33/1/7 9/1/7 11/1/7
f 34/1/8 13/1/8 12/1/8
s 1
f 33/25/16 34/26/16 12/3/2
f 33/25/16 12/3/2 9/4/2
f 35/2/7 36/27/17 37/28/18
f 38/1/8 39/29/19 40/30/20
f 35/5/7 37/28/18 41/31/21
f 38/6/8 42/32/22 39/29/19
f 35/8/7 41/31/21 43/33/23
f 38/7/8 44/34/24 42/32/22
f 35/9/7 43/33/23 45/35/25
f 38/10/8 46/36/26 44/34/24
f 35/12/7 45/35/25 47/37/27
f 38/11/8 48/38/28 46/36/26
f 35/13/7 47/37/27 49/39/29
f 38/14/8 50/40/30 48/38/28
f 35/16/7 49/39/29 51/41/31
f 38/15/8 52/42/32 50/40/30
f 35/17/7 51/41/31 53/43/33
f 38/18/8 54/44/34 52/42/32
f 35/20/7 53/43/33 55/45/35
f 38/19/8 56/46/36 54/44/34
f 35/21/7 55/45/35 57/47/37
f 38/22/8 58/48/38 56/46/36
f 35/24/7 57/47/37 59/49/39
f 38/23/8 60/50/40 58/48/38
f 35/25/7 59/49/39 36/51/17
f 38/26/8 40/52/20 60/50/40
f 36/27/17 61/53/41 62/54/42
f 36/27/17 62/54/42 37/28/18
f 37/28/18 62/54/42 41/31/21
f 62/54/42 63/55/43 41/31/21
f 41/31/21 63/55/43 64/56/44
f 41/31/21 64/56/44 43/33/23
f 43/33/23 64/56/44 45/35/25
f 64/56/44 65/57/45 45/35/25
f 45/35/25 65/57/45 66/58/46
f 45/35/25 66/58/46 47/37/27
f 47/37/27 66/58/46 49/39/29
f 66/58/46 67/59/47 49/39/29
f 49/39/29 67/59/47 68/60/48
f 49/39/29 68/60/48 51/41/31
f 51/41/31 68/60/48 53/43/33
f 68/60/48 69/61/49 53/43/33
f 53/43/33 69/61/49 70/62/50
f 53/43/33 70/62/50 55/45/35
f 55/45/35 70/62/50 57/47/37
f 70/62/50 71/63/51 57/47/37
f 57/47/37 71/63/51 72/64/52
f 57/47/37 72/64/52 59/49/39
f 59/49/39 72/64/52 36/51/17
f 72/64/52 61/65/41 36/51/17
f 61/53/41 73/66/2 62/54/42
f 73/66/2 74/67/9 62/54/42
f 62/54/42 74/67/9 75/68/10
f 62/54/42 75/68/10 63/55/43
f 63/55/43 75/68/10 64/56/44
f 75/68/10 76/69/1 64/56/44
f 64/56/44 76/69/1 77/70/11
f 64/56/44 77/70/11 65/57/45
f 65/57/45 77/70/11 66/58/46
f 77/70/11 78/71/12 66/58/46
f 66/58/46 78/71/12 79/72/4
f 66/58/46 79/72/4 67/59/47
f 67/59/47 79/72/4 68/60/48
f 79/72/4 80/73/13 68/60/48
f 68/60/48 80/73/13 81/74/14
f 68/60/48 81/74/14 69/61/49
f 69/61/49 81/74/14 70/62/50
f 81/74/14 82/75/3 70/62/50
f 70/62/50 82/75/3 83/76/15
f 70/62/50 83/76/15 71/63/51
f 71/63/51 83/76/15 72/64/52
f 83/76/15 84/77/16 72/64/52
f 72/64/52 84/77/16 73/78/2
f 72/64/52 73/78/2 61/65/41
f 73/66/2 85/79/53 86/80/54
f 73/66/2 86/80/54 74/67/9
f 74/67/9 86/80/54 75/68/10
f 86/80/54 87/81/55 75/68/10
f 75/68/10 87/81/55 88/82/56
f 75/68/10 88/82/56 76/69/1
f 76/69/1 88/82/56 77/70/11
f 88/82/56 89/83/57 77/70/11
f 77/70/11 89/83/57 90/84/58
f 77/70/11 90/84/58 78/71/12
f 78/71/12 90/84/58 79/72/4
f 90/84/58 91/85/59 79/72/4
f 79/72/4 91/85/59 92/86/60
f 79/72/4 92/86/60 80/73/13
f 80/73/13 92/86/60 81/74/14
f 92/86/60 93/87/61 81/74/14
f 81/74/14 93/87/61 94/88/62
f 81/74/14 94/88/62 82/75/3
f 82/75/3 94/88/62 83/76/15
f 94/88/62 95/89/63 83/76/15
f 83/76/15 95/89/63 96/90/64
f 83/76/15 96/90/64 84/77/16
f 84/77/16 96/90/64 73/78/2
f 96/90/64 85/91/53 73/78/2
f 85/79/53 40/30/20 86/80/54
f 40/30/20 39/29/19 86/80/54
f 86/80/54 39/29/19 42/32/22
f 86/80/54 42/32/22 87/81/55
f 87/81/55 42/32/22 88/82/56
f 42/32/22 44/34/24 88/82/56
f 88/82/56 44/34/24 46/36/26
f 88/82/56 46/36/26 89/83/57
f 89/83/57 46/36/26 90/84/58
f 46/36/26 48/38/28 90/84/58
f 90/84/58 48/38/28 50/40/30
f 90/84/58 50/40/30 91/85/59
f 91/85/59 50/40/30 92/86/60
f 50/40/30 52/42/32 92/86/60
f 92/86/60 52/42/32 54/44/34
f 92/86/60 54/44/34 93/87/61
f 93/87/61 54/44/34 94/88/62
f 54/44/34 56/46/36 94/88/62
f 94/88/62 56/46/36 58/48/38
f 94/88/62 58/48/38 95/89/63
f 95/89/63 58/48/38 96/90/64
f 58/48/38 60/50/40 96/90/64
f 96/90/64 60/50/40 40/52/20
f 96/90/64 40/52/20 85/91/53
f 97/1/65 98/2/65 99/3/65
f 98/2/65 100/4/65 99/3/65
s 2
f 99/1/2 100/2/2 101/3/2
f 100/2/2 102/4/2 101/3/2
s 1
f 101/1/66 102/2/66 103/3/66
f 102/2/66 104/4/66 103/3/66
s 2
f 103/1/4 104/2/4 97/3/4
f 104/2/4 98/4/4 97/3/4
s 3
f 103/1/67 97/2/67 101/3/67
f 97/2/67 99/4/67 101/3/67
f 98/1/68 104/2/68 100/3/68
f 104/2/68 102/4/68 100/3/68
s 1
f 105/1/69 106/2/69 107/3/69
f 106/2/69 108/4/69 107/3/69
s 2
f 107/1/2 108/2/2 109/3/2
f 108/2/2 110/4/2 109/3/2
s 1
f 109/1/70 110/2/70 111/3/70
f 110/2/70 112/4/70 111/3/70
s 2
f 111/1/4 112/2/4 105/3/4
f 112/2/4 106/4/4 105/3/4
s 3
f 111/1/71 105/2/71 109/3/71
f 105/2/71 107/4/71 109/3/71
f 106/1/72 112/2/72 108/3/72
f 112/2/72 110/4/72 108/3/72
s 1
f 113/1/73 114/2/73 115/3/73
f 114/2/73 116/4/73 115/3/73
s 2
f 115/1/2 116/2/2 117/3/2
f 116/2/2 118/4/2 117/3/2
s 1
f 117/1/74 118/2/74 119/3/74
f 118/2/74 120/4/74 119/3/74
s 2
f 119/1/4 120/2/4 113/3/4
f 120/2/4 114/4/4 113/3/4
s 3
f 119/1/75 113/2/75 117/3/75
f 113/2/75 115/4/75 117/3/75
f 114/1/76 120/2/76 116/3/76
f 120/2/76 118/4/76 116/3/76
s 1
f 121/1/77 122/2/77 123/3/77
f 122/2/77 124/4/77 123/3/77
s 2
f 123/1/2 124/2/2 125/3/2
f 124/2/2 126/4/2 125/3/2
s 1
f 125/1/78 126/2/78 127/3/78
f 126/2/78 128/4/78 127/3/78
s 2
f 127/1/4 128/2/4 121/3/4
f 128/2/4 122/4/4 121/3/4
s 3
f 127/1/79 121/2/79 125/3/79
f 121/2/79 123/4/79 125/3/79
f 122/1/80 128/2/80 124/3/80
f 128/2/80 126/4/80 124/3/80
s 2
f 129/1/81 130/1/81 131/1/81
f 132/1/82 133/1/82 134/1/82
s 1
f 129/2/83 135/66/84 136/67/85
f 129/2/83 136/67/85 130/5/86
f 135/66/84 132/1/87 136/67/85
f 132/1/87 134/6/88 136/67/85
s 2
f 130/1/81 137/1/81 131/1/81
f 134/1/82 133/1/82 138/1/82
s 1
f 130/5/86 136/67/85 137/8/89
f 136/67/85 139/68/90 137/8/89
f 136/67/85 134/6/88 138/7/91
f 136/67/85 138/7/91 139/68/90
s 2
f 137/1/81 140/1/81 131/1/81
f 138/1/82 133/1/82 141/1/82
s 1
f 137/8/89 139/68/90 142/69/92
f 137/8/89 142/69/92 140/9/69
f 139/68/90 138/7/91 142/69/92
f 138/7/91 141/10/93 142/69/92
s 2
f 140/1/81 143/1/81 131/1/81
f 141/1/82 133/1/82 144/1/82
s 1
f 140/9/69 142/69/92 143/12/94
f 142/69/92 145/70/95 143/12/94
f 142/69/92 141/10/93 144/11/96
f 142/69/92 144/11/96 145/70/95
s 2
f 143/1/81 146/1/81 131/1/81
f 144/1/82 133/1/82 147/1/82
s 1
f 143/12/94 145/70/95 148/71/97
f 143/12/94 148/71/97 146/13/98
f 145/70/95 144/11/96 148/71/97
f 144/11/96 147/14/99 148/71/97
s 2
f 146/1/81 149/1/81 131/1/81
f 147/1/82 133/1/82 150/1/82
s 1
f 146/13/98 148/71/97 149/16/100
f 148/71/97 151/72/101 149/16/100
f 148/71/97 147/14/99 150/15/102
f 148/71/97 150/15/102 151/72/101
s 2
f 149/1/81 152/1/81 131/1/81
f 150/1/82 133/1/82 153/1/82
s 1
f 149/16/100 151/72/101 154/73/103
f 149/16/100 154/73/103 152/17/104
f 151/72/101 150/15/102 154/73/103
f 150/15/102 153/18/105 154/73/103
s 2
f 152/1/81 155/1/81 131/1/81
f 153/1/82 133/1/82 156/1/82
s 1
f 152/17/104 154/73/103 155/20/106
f 154/73/103 157/74/107 155/20/106
f 154/73/103 153/18/105 156/19/108
f 154/73/103 156/19/108 157/74/107
s 2
f 155/1/81 158/1/81 131/1/81
f 156/1/82 133/1/82 159/1/82
s 1
f 155/20/106 157/74/107 160/75/109
f 155/20/106 160/75/109 158/21/70
f 157/74/107 156/19/108 160/75/109
f 156/19/108 159/22/110 160/75/109
s 2
f 158/1/81 161/1/81 131/1/81
f 159/1/82 133/1/82 162/1/82
s 1
f 158/21/70 160/75/109 161/24/111
f 160/75/109 163/76/112 161/24/111
f 160/75/109 159/22/110 162/23/113
f 160/75/109 162/23/113 163/76/112
s 2
f 161/1/81 164/1/81 131/1/81
f 162/1/82 133/1/82 165/1/82
s 1
f 161/24/111 163/76/112 166/77/114
f 161/24/111 166/77/114 164/25/115
f 163/76/112 162/23/113 166/77/114
f 162/23/113 165/26/116 166/77/114
s 2
f 164/1/81 129/1/81 131/1/81
f 165/1/82 133/1/82 132/1/82
s 1
f 164/25/115 166/77/114 129/4/83
f 166/77/114 135/78/84 129/4/83
f 166/77/114 165/26/116 132/3/87
f 166/77/114 132/3/87 135/78/84
s 2
f 167/1/117 168/1/117 169/1/117
f 170/1/118 171/1/118 172/1/118
s 1
f 167/2/119 173/66/120 174/67/121
f 167/2/119 174/67/121 168/5/122
f 173/66/120 170/1/123 174/67/121
f 170/1/123 172/6/124 174/67/121
s 2
f 168/1/117 175/1/117 169/1/117
f 172/1/118 171/1/118 176/1/118
s 1
f 168/5/122 174/67/121 175/8/125
f 174/67/121 177/68/126 175/8/125
f 174/67/121 172/6/124 176/7/127
f 174/67/121 176/7/127 177/68/126
s 2
f 175/1/117 178/1/117 169/1/117
f 176/1/118 171/1/118 179/1/118
s 1
f 175/8/125 177/68/126 180/69/128
f 175/8/125 180/69/128 178/9/129
f 177/68/126 176/7/127 180/69/128
f 176/7/127 179/10/65 180/69/128
s 2
f 178/1/117 181/1/117 169/1/117
f 179/1/118 171/1/118 182/1/118
s 1
f 178/9/129 180/69/128 181/12/130
f 180/69/128 183/70/131 181/12/130
f 180/69/128 179/10/65 182/11/132
f 180/69/128 182/11/132 183/70/131
s 2
f 181/1/117 184/1/117 169/1/117
f 182/1/118 171/1/118 185/1/118
s 1
f 181/12/130 183/70/131 186/71/133
f 181/12/130 186/71/133 184/13/134
f 183/70/131 182/11/132 186/71/133
f 182/11/132 185/14/135 186/71/133
s 2
f 184/1/117 187/1/117 169/1/117
f 185/1/118 171/1/118 188/1/118
s 1
f 184/13/134 186/71/133 187/16/136
f 186/71/133 189/72/137 187/16/136
f 186/71/133 185/14/135 188/15/138
f 186/71/133 188/15/138 189/72/137
s 2
f 187/1/117 190/1/117 169/1/117
f 188/1/118 171/1/118 191/1/118
s 1
f 187/16/136 189/72/137 192/73/139
f 187/16/136 192/73/139 190/17/140
f 189/72/137 188/15/138 192/73/139
f 188/15/138 191/18/141 192/73/139
s 2
f 190/1/117 193/1/117 169/1/117
f 191/1/118 171/1/118 194/1/118
s 1
f 190/17/140 192/73/139 193/20/142
f 192/73/139 195/74/143 193/20/142
f 192/73/139 191/18/141 194/19/144
f 192/73/139 194/19/144 195/74/143
s 2
f 193/1/117 196/1/117 169/1/117
f 194/1/118 171/1/118 197/1/118
s 1
f 193/20/142 195/74/143 198/75/145
f 193/20/142 198/75/145 196/21/146
f 195/74/143 194/19/144 198/75/145
f 194/19/144 197/22/66 198/75/145
s 2
f 196/1/117 199/1/117 169/1/117
f 197/1/118 171/1/118 200/1/118
s 1
f 196/21/146 198/75/145 199/24/147
f 198/75/145 201/76/148 199/24/147
f 198/75/145 197/22/66 200/23/149
f 198/75/145 200/23/149 201/76/148
s 2
f 199/1/117 202/1/117 169/1/117
f 200/1/118 171/1/118 203/1/118
s 1
f 199/24/147 201/76/148 204/77/150
f 199/24/147 204/77/150 202/25/151
f 201/76/148 200/23/149 204/77/150
f 200/23/149 203/26/152 204/77/150
s 2
f 202/1/117 167/1/117 169/1/117
f 203/1/118 171/1/118 170/1/118
s 1
f 202/25/151 204/77/150 167/4/119
f 204/77/150 173/78/120 167/4/119
f 204/77/150 203/26/152 170/3/123
f 204/77/150 170/3/123 173/78/120
# 372 triangles in group

# 372 triangles total

