# Wavefront OBJ exported by MilkShape 3D

mtllib msfigureStanding.mtl

v -0.136641 0.589181 0.074538
v -0.136641 0.276680 0.074538
v 0.168359 0.589181 0.074538
v 0.168359 0.276680 0.074538
v 0.168359 0.591681 -0.082962
v 0.168359 0.279181 -0.082962
v -0.136641 0.591681 -0.082962
v -0.136641 0.279181 -0.082962
v 0.034609 0.586681 -0.005462
v 0.030422 0.586681 0.010163
v 0.003359 0.586681 -0.005462
v 0.034609 0.626680 -0.005462
v 0.003359 0.626680 -0.005462
v 0.030422 0.626680 0.010163
v 0.018984 0.586681 0.021602
v 0.018984 0.626680 0.021602
v 0.003359 0.586681 0.025788
v 0.003359 0.626680 0.025788
v -0.012266 0.586681 0.021602
v -0.012266 0.626680 0.021602
v -0.023704 0.586681 0.010163
v -0.023704 0.626680 0.010163
v -0.027891 0.586681 -0.005462
v -0.027891 0.626680 -0.005462
v -0.023704 0.586681 -0.021087
v -0.023704 0.626680 -0.021087
v -0.012266 0.586681 -0.032525
v -0.012266 0.626680 -0.032525
v 0.003359 0.586681 -0.036712
v 0.003359 0.626680 -0.036712
v 0.018984 0.586681 -0.032525
v 0.018984 0.626680 -0.032525
v 0.030422 0.586681 -0.021087
v 0.030422 0.626680 -0.021087
v 0.008359 0.619180 -0.009212
v 0.038359 0.627219 -0.009212
v 0.034340 0.627219 0.005788
v 0.008359 0.739180 -0.009212
v 0.034340 0.731142 0.005788
v 0.038359 0.731142 -0.009212
v 0.023359 0.627219 0.016769
v 0.023359 0.731142 0.016769
v 0.008359 0.627219 0.020788
v 0.008359 0.731142 0.020788
v -0.006641 0.627219 0.016769
v -0.006641 0.731142 0.016769
v -0.017622 0.627219 0.005788
v -0.017622 0.731142 0.005788
v -0.021641 0.627219 -0.009212
v -0.021641 0.731142 -0.009212
v -0.017622 0.627219 -0.024212
v -0.017622 0.731142 -0.024212
v -0.006641 0.627219 -0.035192
v -0.006641 0.731142 -0.035192
v 0.008359 0.627219 -0.039212
v 0.008359 0.731142 -0.039212
v 0.023359 0.627219 -0.035192
v 0.023359 0.731142 -0.035192
v 0.034340 0.627219 -0.024212
v 0.034340 0.731142 -0.024212
v 0.060321 0.649180 -0.009212
v 0.053359 0.649180 0.016769
v 0.034340 0.649180 0.035788
v 0.008359 0.649180 0.042750
v -0.017622 0.649180 0.035788
v -0.036641 0.649180 0.016769
v -0.043602 0.649180 -0.009212
v -0.036641 0.649180 -0.035192
v -0.017622 0.649180 -0.054212
v 0.008359 0.649180 -0.061173
v 0.034340 0.649180 -0.054212
v 0.053359 0.649180 -0.035192
v 0.068359 0.679181 -0.009212
v 0.060321 0.679181 0.020788
v 0.038359 0.679181 0.042750
v 0.008359 0.679181 0.050788
v -0.021641 0.679181 0.042750
v -0.043602 0.679181 0.020788
v -0.051641 0.679181 -0.009212
v -0.043602 0.679181 -0.039212
v -0.021641 0.679181 -0.061173
v 0.008359 0.679181 -0.069212
v 0.038359 0.679181 -0.061173
v 0.060321 0.679181 -0.039212
v 0.060321 0.709181 -0.009212
v 0.053359 0.709181 0.016769
v 0.034340 0.709181 0.035788
v 0.008359 0.709181 0.042750
v -0.017622 0.709181 0.035788
v -0.036641 0.709181 0.016769
v -0.043602 0.709181 -0.009212
v -0.036641 0.709181 -0.035192
v -0.017622 0.709181 -0.054212
v 0.008359 0.709181 -0.061173
v 0.034340 0.709181 -0.054212
v 0.053359 0.709181 -0.035192
v 0.190859 0.574181 0.002038
v 0.190859 0.301680 0.002038
v 0.255859 0.574181 0.002038
v 0.255859 0.301680 0.002038
v 0.255859 0.566681 -0.062962
v 0.255859 0.294180 -0.062962
v 0.190859 0.566681 -0.062962
v 0.190859 0.294180 -0.062962
v -0.226641 0.576681 0.002038
v -0.226641 0.304181 0.002038
v -0.161641 0.576681 0.002038
v -0.161641 0.304181 0.002038
v -0.161641 0.569180 -0.062962
v -0.161641 0.296681 -0.062962
v -0.226641 0.569180 -0.062962
v -0.226641 0.296681 -0.062962
v -0.095141 0.277180 0.037038
v -0.095141 0.019681 0.037038
v -0.015141 0.277180 0.037038
v -0.015141 0.019681 0.037038
v -0.015141 0.279681 -0.042962
v -0.015141 0.022181 -0.042962
v -0.095141 0.279681 -0.042962
v -0.095141 0.022181 -0.042962
v 0.057359 0.277180 0.037038
v 0.057359 0.019680 0.037038
v 0.137359 0.277180 0.037038
v 0.137359 0.019680 0.037038
v 0.137359 0.279680 -0.042962
v 0.137359 0.022180 -0.042962
v 0.057359 0.279680 -0.042962
v 0.057359 0.022180 -0.042962
v -0.169916 0.515981 -0.031712
v -0.169979 0.519598 -0.018212
v -0.170387 0.542977 -0.031712
v -0.117924 0.516888 -0.031712
v -0.118395 0.543884 -0.031712
v -0.117987 0.520505 -0.018212
v -0.143920 0.516435 -0.031712
v -0.143983 0.520051 -0.018212
v -0.170151 0.529479 -0.008329
v -0.118159 0.530386 -0.008329
v -0.144155 0.529933 -0.008329
v -0.170387 0.542977 -0.004712
v -0.118395 0.543884 -0.004712
v -0.144391 0.543431 -0.004712
v -0.170623 0.556475 -0.008329
v -0.118631 0.557382 -0.008329
v -0.144627 0.556929 -0.008329
v -0.170795 0.566356 -0.018212
v -0.118803 0.567264 -0.018212
v -0.144799 0.566810 -0.018212
v -0.170858 0.569973 -0.031712
v -0.118866 0.570880 -0.031712
v -0.144862 0.570426 -0.031712
v -0.170795 0.566356 -0.045212
v -0.118803 0.567264 -0.045212
v -0.144799 0.566810 -0.045212
v -0.170623 0.556475 -0.055094
v -0.118631 0.557382 -0.055094
v -0.144627 0.556929 -0.055094
v -0.170387 0.542977 -0.058712
v -0.118395 0.543884 -0.058712
v -0.144391 0.543431 -0.058712
v -0.170151 0.529479 -0.055094
v -0.118159 0.530386 -0.055094
v -0.144155 0.529933 -0.055094
v -0.169979 0.519598 -0.045212
v -0.117987 0.520505 -0.045212
v -0.143983 0.520051 -0.045212
v 0.148084 0.513981 -0.028712
v 0.148021 0.517598 -0.015212
v 0.147613 0.540977 -0.028712
v 0.200076 0.514888 -0.028712
v 0.199605 0.541884 -0.028712
v 0.200013 0.518505 -0.015212
v 0.174080 0.514435 -0.028712
v 0.174017 0.518051 -0.015212
v 0.147849 0.527479 -0.005329
v 0.199841 0.528386 -0.005329
v 0.173845 0.527933 -0.005329
v 0.147613 0.540977 -0.001712
v 0.199605 0.541884 -0.001712
v 0.173609 0.541430 -0.001712
v 0.147377 0.554475 -0.005329
v 0.199369 0.555382 -0.005329
v 0.173373 0.554929 -0.005329
v 0.147205 0.564356 -0.015212
v 0.199197 0.565264 -0.015212
v 0.173201 0.564810 -0.015212
v 0.147142 0.567973 -0.028712
v 0.199134 0.568880 -0.028712
v 0.173138 0.568426 -0.028712
v 0.147205 0.564356 -0.042212
v 0.199197 0.565264 -0.042212
v 0.173201 0.564810 -0.042212
v 0.147377 0.554475 -0.052094
v 0.199369 0.555382 -0.052094
v 0.173373 0.554929 -0.052094
v 0.147613 0.540977 -0.055712
v 0.199605 0.541884 -0.055712
v 0.173609 0.541430 -0.055712
v 0.147849 0.527479 -0.052094
v 0.199841 0.528386 -0.052094
v 0.173845 0.527933 -0.052094
v 0.148021 0.517598 -0.042212
v 0.200013 0.518505 -0.042212
v 0.174017 0.518051 -0.042212
# 204 vertices

vt 0.000000 1.000000
vt 0.000000 0.000000
vt 1.000000 1.000000
vt 1.000000 0.000000
vt 0.083333 0.000000
vt 0.083333 1.000000
vt 0.166667 1.000000
vt 0.166667 0.000000
vt 0.250000 0.000000
vt 0.250000 1.000000
vt 0.333333 1.000000
vt 0.333333 0.000000
vt 0.416667 0.000000
vt 0.416667 1.000000
vt 0.500000 1.000000
vt 0.500000 0.000000
vt 0.583333 0.000000
vt 0.583333 1.000000
vt 0.666667 1.000000
vt 0.666667 0.000000
vt 0.750000 0.000000
vt 0.750000 1.000000
vt 0.833333 1.000000
vt 0.833333 0.000000
vt 0.916667 0.000000
vt 0.916667 1.000000
vt 0.000000 0.166667
vt 0.083333 0.166667
vt 0.083333 0.833333
vt 0.000000 0.833333
vt 0.166667 0.166667
vt 0.166667 0.833333
vt 0.250000 0.166667
vt 0.250000 0.833333
vt 0.333333 0.166667
vt 0.333333 0.833333
vt 0.416667 0.166667
vt 0.416667 0.833333
vt 0.500000 0.166667
vt 0.500000 0.833333
vt 0.583333 0.166667
vt 0.583333 0.833333
vt 0.666667 0.166667
vt 0.666667 0.833333
vt 0.750000 0.166667
vt 0.750000 0.833333
vt 0.833333 0.166667
vt 0.833333 0.833333
vt 0.916667 0.166667
vt 0.916667 0.833333
vt 1.000000 0.166667
vt 1.000000 0.833333
vt 0.000000 0.333333
vt 0.083333 0.333333
vt 0.166667 0.333333
vt 0.250000 0.333333
vt 0.333333 0.333333
vt 0.416667 0.333333
vt 0.500000 0.333333
vt 0.583333 0.333333
vt 0.666667 0.333333
vt 0.750000 0.333333
vt 0.833333 0.333333
vt 0.916667 0.333333
vt 1.000000 0.333333
vt 0.000000 0.500000
vt 0.083333 0.500000
vt 0.166667 0.500000
vt 0.250000 0.500000
vt 0.333333 0.500000
vt 0.416667 0.500000
vt 0.500000 0.500000
vt 0.583333 0.500000
vt 0.666667 0.500000
vt 0.750000 0.500000
vt 0.833333 0.500000
vt 0.916667 0.500000
vt 1.000000 0.500000
vt 0.000000 0.666667
vt 0.083333 0.666667
vt 0.166667 0.666667
vt 0.250000 0.666667
vt 0.333333 0.666667
vt 0.416667 0.666667
vt 0.500000 0.666667
vt 0.583333 0.666667
vt 0.666667 0.666667
vt 0.750000 0.666667
vt 0.833333 0.666667
vt 0.916667 0.666667
vt 1.000000 0.666667
# 91 texture coordinates

vn 0.000000 0.000000 1.000000
vn 1.000000 0.000000 0.000000
vn 0.000000 0.000000 -1.000000
vn -1.000000 0.000000 0.000000
vn 0.000000 0.999874 0.015871
vn 0.000000 -0.999874 -0.015871
vn 0.000000 -1.000000 0.000000
vn 0.000000 1.000000 0.000000
vn 0.866026 0.000000 0.499999
vn 0.499999 0.000000 0.866026
vn -0.499999 0.000000 0.866026
vn -0.866026 0.000000 0.499999
vn -0.866025 0.000000 -0.500001
vn -0.500000 0.000000 -0.866025
vn 0.500000 0.000000 -0.866025
vn 0.866025 0.000000 -0.500001
vn 0.573583 -0.819148 0.000000
vn 0.431481 -0.867044 0.249115
vn 0.431480 0.867045 0.249115
vn 0.573581 0.819149 0.000000
vn 0.286792 -0.819147 0.496737
vn 0.286791 0.819148 0.496736
vn 0.000000 -0.867044 0.498231
vn 0.000000 0.867045 0.498230
vn -0.286792 -0.819147 0.496737
vn -0.286791 0.819148 0.496736
vn -0.431481 -0.867044 0.249115
vn -0.431480 0.867045 0.249115
vn -0.573583 -0.819147 0.000000
vn -0.573582 0.819148 0.000000
vn -0.431481 -0.867044 -0.249116
vn -0.431480 0.867045 -0.249116
vn -0.286791 -0.819147 -0.496738
vn -0.286791 0.819148 -0.496736
vn 0.000000 -0.867044 -0.498231
vn 0.000000 0.867045 -0.498230
vn 0.286792 -0.819147 -0.496738
vn 0.286791 0.819148 -0.496736
vn 0.431481 -0.867044 -0.249116
vn 0.431480 0.867045 -0.249116
vn 0.865033 -0.501714 -0.000000
vn 0.749141 -0.501715 0.432517
vn 0.432517 -0.501714 0.749141
vn 0.000000 -0.501715 0.865033
vn -0.432517 -0.501714 0.749141
vn -0.749141 -0.501715 0.432517
vn -0.865033 -0.501714 -0.000000
vn -0.749141 -0.501714 -0.432517
vn -0.432517 -0.501715 -0.749141
vn 0.000000 -0.501715 -0.865033
vn 0.432517 -0.501715 -0.749141
vn 0.749141 -0.501714 -0.432517
vn 0.865032 0.501716 -0.000000
vn 0.749140 0.501717 0.432516
vn 0.432516 0.501716 0.749140
vn 0.000000 0.501717 0.865032
vn -0.432516 0.501716 0.749140
vn -0.749140 0.501717 0.432516
vn -0.865032 0.501716 -0.000000
vn -0.749140 0.501716 -0.432516
vn -0.432516 0.501717 -0.749140
vn 0.000000 0.501717 -0.865032
vn 0.432516 0.501717 -0.749140
vn 0.749140 0.501716 -0.432516
vn 0.000000 0.993409 -0.114625
vn 0.000000 -0.993409 0.114624
vn 0.000000 0.999512 0.031235
vn 0.000000 -0.999512 -0.031235
vn -0.999848 -0.017452 -0.000000
vn 0.999848 0.017452 -0.000000
vn 0.017455 -0.999848 -0.000000
vn 0.015116 -0.865893 0.500001
vn 0.008727 -0.499922 0.866026
vn -0.008726 0.499924 0.866025
vn -0.015116 0.865894 0.500000
vn -0.017453 0.999848 -0.000000
vn -0.015116 0.865893 -0.500001
vn -0.008726 0.499922 -0.866026
vn 0.008727 -0.499921 -0.866027
vn 0.015116 -0.865892 -0.500002
# 80 normals

g Regroup01
usemtl Material02
s 1
f 1/1/1 2/2/1 3/3/1
f 2/2/1 4/4/1 3/3/1
s 2
f 3/1/2 4/2/2 5/3/2
f 4/2/2 6/4/2 5/3/2
s 1
f 5/1/3 6/2/3 7/3/3
f 6/2/3 8/4/3 7/3/3
s 2
f 7/1/4 8/2/4 1/3/4
f 8/2/4 2/4/4 1/3/4
s 3
f 7/1/5 1/2/5 5/3/5
f 1/2/5 3/4/5 5/3/5
f 2/1/6 8/2/6 4/3/6
f 8/2/6 6/4/6 4/3/6
s 2
f 9/1/7 10/1/7 11/1/7
f 12/1/8 13/1/8 14/1/8
s 1
f 9/2/2 12/1/2 10/5/9
f 12/1/2 14/6/9 10/5/9
s 2
f 10/1/7 15/1/7 11/1/7
f 14/1/8 13/1/8 16/1/8
s 1
f 10/5/9 14/6/9 16/7/10
f 10/5/9 16/7/10 15/8/10
s 2
f 15/1/7 17/1/7 11/1/7
f 16/1/8 13/1/8 18/1/8
s 1
f 15/8/10 16/7/10 17/9/1
f 16/7/10 18/10/1 17/9/1
s 2
f 17/1/7 19/1/7 11/1/7
f 18/1/8 13/1/8 20/1/8
s 1
f 17/9/1 18/10/1 20/11/11
f 17/9/1 20/11/11 19/12/11
s 2
f 19/1/7 21/1/7 11/1/7
f 20/1/8 13/1/8 22/1/8
s 1
f 19/12/11 20/11/11 21/13/12
f 20/11/11 22/14/12 21/13/12
s 2
f 21/1/7 23/1/7 11/1/7
f 22/1/8 13/1/8 24/1/8
s 1
f 21/13/12 22/14/12 24/15/4
f 21/13/12 24/15/4 23/16/4
s 2
f 23/1/7 25/1/7 11/1/7
f 24/1/8 13/1/8 26/1/8
s 1
f 23/16/4 24/15/4 25/17/13
f 24/15/4 26/18/13 25/17/13
s 2
f 25/1/7 27/1/7 11/1/7
f 26/1/8 13/1/8 28/1/8
s 1
f 25/17/13 26/18/13 28/19/14
f 25/17/13 28/19/14 27/20/14
s 2
f 27/1/7 29/1/7 11/1/7
f 28/1/8 13/1/8 30/1/8
s 1
f 27/20/14 28/19/14 29/21/3
f 28/19/14 30/22/3 29/21/3
s 2
f 29/1/7 31/1/7 11/1/7
f 30/1/8 13/1/8 32/1/8
s 1
f 29/21/3 30/22/3 32/23/15
f 29/21/3 32/23/15 31/24/15
s 2
f 31/1/7 33/1/7 11/1/7
f 32/1/8 13/1/8 34/1/8
s 1
f 31/24/15 32/23/15 33/25/16
f 32/23/15 34/26/16 33/25/16
s 2
f 33/1/7 9/1/7 11/1/7
f 34/1/8 13/1/8 12/1/8
s 1
f 33/25/16 34/26/16 12/3/2
f 33/25/16 12/3/2 9/4/2
f 35/2/7 36/27/17 37/28/18
f 38/1/8 39/29/19 40/30/20
f 35/5/7 37/28/18 41/31/21
f 38/6/8 42/32/22 39/29/19
f 35/8/7 41/31/21 43/33/23
f 38/7/8 44/34/24 42/32/22
f 35/9/7 43/33/23 45/35/25
f 38/10/8 46/36/26 44/34/24
f 35/12/7 45/35/25 47/37/27
f 38/11/8 48/38/28 46/36/26
f 35/13/7 47/37/27 49/39/29
f 38/14/8 50/40/30 48/38/28
f 35/16/7 49/39/29 51/41/31
f 38/15/8 52/42/32 50/40/30
f 35/17/7 51/41/31 53/43/33
f 38/18/8 54/44/34 52/42/32
f 35/20/7 53/43/33 55/45/35
f 38/19/8 56/46/36 54/44/34
f 35/21/7 55/45/35 57/47/37
f 38/22/8 58/48/38 56/46/36
f 35/24/7 57/47/37 59/49/39
f 38/23/8 60/50/40 58/48/38
f 35/25/7 59/49/39 36/51/17
f 38/26/8 40/52/20 60/50/40
f 36/27/17 61/53/41 62/54/42
f 36/27/17 62/54/42 37/28/18
f 37/28/18 62/54/42 41/31/21
f 62/54/42 63/55/43 41/31/21
f 41/31/21 63/55/43 64/56/44
f 41/31/21 64/56/44 43/33/23
f 43/33/23 64/56/44 45/35/25
f 64/56/44 65/57/45 45/35/25
f 45/35/25 65/57/45 66/58/46
f 45/35/25 66/58/46 47/37/27
f 47/37/27 66/58/46 49/39/29
f 66/58/46 67/59/47 49/39/29
f 49/39/29 67/59/47 68/60/48
f 49/39/29 68/60/48 51/41/31
f 51/41/31 68/60/48 53/43/33
f 68/60/48 69/61/49 53/43/33
f 53/43/33 69/61/49 70/62/50
f 53/43/33 70/62/50 55/45/35
f 55/45/35 70/62/50 57/47/37
f 70/62/50 71/63/51 57/47/37
f 57/47/37 71/63/51 72/64/52
f 57/47/37 72/64/52 59/49/39
f 59/49/39 72/64/52 36/51/17
f 72/64/52 61/65/41 36/51/17
f 61/53/41 73/66/2 62/54/42
f 73/66/2 74/67/9 62/54/42
f 62/54/42 74/67/9 75/68/10
f 62/54/42 75/68/10 63/55/43
f 63/55/43 75/68/10 64/56/44
f 75/68/10 76/69/1 64/56/44
f 64/56/44 76/69/1 77/70/11
f 64/56/44 77/70/11 65/57/45
f 65/57/45 77/70/11 66/58/46
f 77/70/11 78/71/12 66/58/46
f 66/58/46 78/71/12 79/72/4
f 66/58/46 79/72/4 67/59/47
f 67/59/47 79/72/4 68/60/48
f 79/72/4 80/73/13 68/60/48
f 68/60/48 80/73/13 81/74/14
f 68/60/48 81/74/14 69/61/49
f 69/61/49 81/74/14 70/62/50
f 81/74/14 82/75/3 70/62/50
f 70/62/50 82/75/3 83/76/15
f 70/62/50 83/76/15 71/63/51
f 71/63/51 83/76/15 72/64/52
f 83/76/15 84/77/16 72/64/52
f 72/64/52 84/77/16 73/78/2
f 72/64/52 73/78/2 61/65/41
f 73/66/2 85/79/53 86/80/54
f 73/66/2 86/80/54 74/67/9
f 74/67/9 86/80/54 75/68/10
f 86/80/54 87/81/55 75/68/10
f 75/68/10 87/81/55 88/82/56
f 75/68/10 88/82/56 76/69/1
f 76/69/1 88/82/56 77/70/11
f 88/82/56 89/83/57 77/70/11
f 77/70/11 89/83/57 90/84/58
f 77/70/11 90/84/58 78/71/12
f 78/71/12 90/84/58 79/72/4
f 90/84/58 91/85/59 79/72/4
f 79/72/4 91/85/59 92/86/60
f 79/72/4 92/86/60 80/73/13
f 80/73/13 92/86/60 81/74/14
f 92/86/60 93/87/61 81/74/14
f 81/74/14 93/87/61 94/88/62
f 81/74/14 94/88/62 82/75/3
f 82/75/3 94/88/62 83/76/15
f 94/88/62 95/89/63 83/76/15
f 83/76/15 95/89/63 96/90/64
f 83/76/15 96/90/64 84/77/16
f 84/77/16 96/90/64 73/78/2
f 96/90/64 85/91/53 73/78/2
f 85/79/53 40/30/20 86/80/54
f 40/30/20 39/29/19 86/80/54
f 86/80/54 39/29/19 42/32/22
f 86/80/54 42/32/22 87/81/55
f 87/81/55 42/32/22 88/82/56
f 42/32/22 44/34/24 88/82/56
f 88/82/56 44/34/24 46/36/26
f 88/82/56 46/36/26 89/83/57
f 89/83/57 46/36/26 90/84/58
f 46/36/26 48/38/28 90/84/58
f 90/84/58 48/38/28 50/40/30
f 90/84/58 50/40/30 91/85/59
f 91/85/59 50/40/30 92/86/60
f 50/40/30 52/42/32 92/86/60
f 92/86/60 52/42/32 54/44/34
f 92/86/60 54/44/34 93/87/61
f 93/87/61 54/44/34 94/88/62
f 54/44/34 56/46/36 94/88/62
f 94/88/62 56/46/36 58/48/38
f 94/88/62 58/48/38 95/89/63
f 95/89/63 58/48/38 96/90/64
f 58/48/38 60/50/40 96/90/64
f 96/90/64 60/50/40 40/52/20
f 96/90/64 40/52/20 85/91/53
f 97/1/1 98/2/1 99/3/1
f 98/2/1 100/4/1 99/3/1
s 2
f 99/1/2 100/2/2 101/3/2
f 100/2/2 102/4/2 101/3/2
s 1
f 101/1/3 102/2/3 103/3/3
f 102/2/3 104/4/3 103/3/3
s 2
f 103/1/4 104/2/4 97/3/4
f 104/2/4 98/4/4 97/3/4
s 3
f 103/1/65 97/2/65 101/3/65
f 97/2/65 99/4/65 101/3/65
f 98/1/66 104/2/66 100/3/66
f 104/2/66 102/4/66 100/3/66
s 1
f 105/1/1 106/2/1 107/3/1
f 106/2/1 108/4/1 107/3/1
s 2
f 107/1/2 108/2/2 109/3/2
f 108/2/2 110/4/2 109/3/2
s 1
f 109/1/3 110/2/3 111/3/3
f 110/2/3 112/4/3 111/3/3
s 2
f 111/1/4 112/2/4 105/3/4
f 112/2/4 106/4/4 105/3/4
s 3
f 111/1/65 105/2/65 109/3/65
f 105/2/65 107/4/65 109/3/65
f 106/1/66 112/2/66 108/3/66
f 112/2/66 110/4/66 108/3/66
s 1
f 113/1/1 114/2/1 115/3/1
f 114/2/1 116/4/1 115/3/1
s 2
f 115/1/2 116/2/2 117/3/2
f 116/2/2 118/4/2 117/3/2
s 1
f 117/1/3 118/2/3 119/3/3
f 118/2/3 120/4/3 119/3/3
s 2
f 119/1/4 120/2/4 113/3/4
f 120/2/4 114/4/4 113/3/4
s 3
f 119/1/67 113/2/67 117/3/67
f 113/2/67 115/4/67 117/3/67
f 114/1/68 120/2/68 116/3/68
f 120/2/68 118/4/68 116/3/68
s 1
f 121/1/1 122/2/1 123/3/1
f 122/2/1 124/4/1 123/3/1
s 2
f 123/1/2 124/2/2 125/3/2
f 124/2/2 126/4/2 125/3/2
s 1
f 125/1/3 126/2/3 127/3/3
f 126/2/3 128/4/3 127/3/3
s 2
f 127/1/4 128/2/4 121/3/4
f 128/2/4 122/4/4 121/3/4
s 3
f 127/1/67 121/2/67 125/3/67
f 121/2/67 123/4/67 125/3/67
f 122/1/68 128/2/68 124/3/68
f 128/2/68 126/4/68 124/3/68
s 2
f 129/1/69 130/1/69 131/1/69
f 132/1/70 133/1/70 134/1/70
s 1
f 129/2/71 135/66/71 136/67/72
f 129/2/71 136/67/72 130/5/72
f 135/66/71 132/1/71 136/67/72
f 132/1/71 134/6/72 136/67/72
s 2
f 130/1/69 137/1/69 131/1/69
f 134/1/70 133/1/70 138/1/70
s 1
f 130/5/72 136/67/72 137/8/73
f 136/67/72 139/68/73 137/8/73
f 136/67/72 134/6/72 138/7/73
f 136/67/72 138/7/73 139/68/73
s 2
f 137/1/69 140/1/69 131/1/69
f 138/1/70 133/1/70 141/1/70
s 1
f 137/8/73 139/68/73 142/69/1
f 137/8/73 142/69/1 140/9/1
f 139/68/73 138/7/73 142/69/1
f 138/7/73 141/10/1 142/69/1
s 2
f 140/1/69 143/1/69 131/1/69
f 141/1/70 133/1/70 144/1/70
s 1
f 140/9/1 142/69/1 143/12/74
f 142/69/1 145/70/74 143/12/74
f 142/69/1 141/10/1 144/11/74
f 142/69/1 144/11/74 145/70/74
s 2
f 143/1/69 146/1/69 131/1/69
f 144/1/70 133/1/70 147/1/70
s 1
f 143/12/74 145/70/74 148/71/75
f 143/12/74 148/71/75 146/13/75
f 145/70/74 144/11/74 148/71/75
f 144/11/74 147/14/75 148/71/75
s 2
f 146/1/69 149/1/69 131/1/69
f 147/1/70 133/1/70 150/1/70
s 1
f 146/13/75 148/71/75 149/16/76
f 148/71/75 151/72/76 149/16/76
f 148/71/75 147/14/75 150/15/76
f 148/71/75 150/15/76 151/72/76
s 2
f 149/1/69 152/1/69 131/1/69
f 150/1/70 133/1/70 153/1/70
s 1
f 149/16/76 151/72/76 154/73/77
f 149/16/76 154/73/77 152/17/77
f 151/72/76 150/15/76 154/73/77
f 150/15/76 153/18/77 154/73/77
s 2
f 152/1/69 155/1/69 131/1/69
f 153/1/70 133/1/70 156/1/70
s 1
f 152/17/77 154/73/77 155/20/78
f 154/73/77 157/74/78 155/20/78
f 154/73/77 153/18/77 156/19/78
f 154/73/77 156/19/78 157/74/78
s 2
f 155/1/69 158/1/69 131/1/69
f 156/1/70 133/1/70 159/1/70
s 1
f 155/20/78 157/74/78 160/75/3
f 155/20/78 160/75/3 158/21/3
f 157/74/78 156/19/78 160/75/3
f 156/19/78 159/22/3 160/75/3
s 2
f 158/1/69 161/1/69 131/1/69
f 159/1/70 133/1/70 162/1/70
s 1
f 158/21/3 160/75/3 161/24/79
f 160/75/3 163/76/79 161/24/79
f 160/75/3 159/22/3 162/23/79
f 160/75/3 162/23/79 163/76/79
s 2
f 161/1/69 164/1/69 131/1/69
f 162/1/70 133/1/70 165/1/70
s 1
f 161/24/79 163/76/79 166/77/80
f 161/24/79 166/77/80 164/25/80
f 163/76/79 162/23/79 166/77/80
f 162/23/79 165/26/80 166/77/80
s 2
f 164/1/69 129/1/69 131/1/69
f 165/1/70 133/1/70 132/1/70
s 1
f 164/25/80 166/77/80 129/4/71
f 166/77/80 135/78/71 129/4/71
f 166/77/80 165/26/80 132/3/71
f 166/77/80 132/3/71 135/78/71
s 2
f 167/1/69 168/1/69 169/1/69
f 170/1/70 171/1/70 172/1/70
s 1
f 167/2/71 173/66/71 174/67/72
f 167/2/71 174/67/72 168/5/72
f 173/66/71 170/1/71 174/67/72
f 170/1/71 172/6/72 174/67/72
s 2
f 168/1/69 175/1/69 169/1/69
f 172/1/70 171/1/70 176/1/70
s 1
f 168/5/72 174/67/72 175/8/73
f 174/67/72 177/68/73 175/8/73
f 174/67/72 172/6/72 176/7/73
f 174/67/72 176/7/73 177/68/73
s 2
f 175/1/69 178/1/69 169/1/69
f 176/1/70 171/1/70 179/1/70
s 1
f 175/8/73 177/68/73 180/69/1
f 175/8/73 180/69/1 178/9/1
f 177/68/73 176/7/73 180/69/1
f 176/7/73 179/10/1 180/69/1
s 2
f 178/1/69 181/1/69 169/1/69
f 179/1/70 171/1/70 182/1/70
s 1
f 178/9/1 180/69/1 181/12/74
f 180/69/1 183/70/74 181/12/74
f 180/69/1 179/10/1 182/11/74
f 180/69/1 182/11/74 183/70/74
s 2
f 181/1/69 184/1/69 169/1/69
f 182/1/70 171/1/70 185/1/70
s 1
f 181/12/74 183/70/74 186/71/75
f 181/12/74 186/71/75 184/13/75
f 183/70/74 182/11/74 186/71/75
f 182/11/74 185/14/75 186/71/75
s 2
f 184/1/69 187/1/69 169/1/69
f 185/1/70 171/1/70 188/1/70
s 1
f 184/13/75 186/71/75 187/16/76
f 186/71/75 189/72/76 187/16/76
f 186/71/75 185/14/75 188/15/76
f 186/71/75 188/15/76 189/72/76
s 2
f 187/1/69 190/1/69 169/1/69
f 188/1/70 171/1/70 191/1/70
s 1
f 187/16/76 189/72/76 192/73/77
f 187/16/76 192/73/77 190/17/77
f 189/72/76 188/15/76 192/73/77
f 188/15/76 191/18/77 192/73/77
s 2
f 190/1/69 193/1/69 169/1/69
f 191/1/70 171/1/70 194/1/70
s 1
f 190/17/77 192/73/77 193/20/78
f 192/73/77 195/74/78 193/20/78
f 192/73/77 191/18/77 194/19/78
f 192/73/77 194/19/78 195/74/78
s 2
f 193/1/69 196/1/69 169/1/69
f 194/1/70 171/1/70 197/1/70
s 1
f 193/20/78 195/74/78 198/75/3
f 193/20/78 198/75/3 196/21/3
f 195/74/78 194/19/78 198/75/3
f 194/19/78 197/22/3 198/75/3
s 2
f 196/1/69 199/1/69 169/1/69
f 197/1/70 171/1/70 200/1/70
s 1
f 196/21/3 198/75/3 199/24/79
f 198/75/3 201/76/79 199/24/79
f 198/75/3 197/22/3 200/23/79
f 198/75/3 200/23/79 201/76/79
s 2
f 199/1/69 202/1/69 169/1/69
f 200/1/70 171/1/70 203/1/70
s 1
f 199/24/79 201/76/79 204/77/80
f 199/24/79 204/77/80 202/25/80
f 201/76/79 200/23/79 204/77/80
f 200/23/79 203/26/80 204/77/80
s 2
f 202/1/69 167/1/69 169/1/69
f 203/1/70 171/1/70 170/1/70
s 1
f 202/25/80 204/77/80 167/4/71
f 204/77/80 173/78/71 167/4/71
f 204/77/80 203/26/80 170/3/71
f 204/77/80 170/3/71 173/78/71
# 372 triangles in group

# 372 triangles total

