# Wavefront OBJ exported by MilkShape 3D

mtllib msfigureStep1.mtl

v -0.167694 0.558502 0.075356
v -0.167694 0.246002 0.075356
v 0.137306 0.558502 0.075356
v 0.137306 0.246002 0.075356
v 0.137306 0.561001 -0.082144
v 0.137306 0.248502 -0.082144
v -0.167694 0.561001 -0.082144
v -0.167694 0.248502 -0.082144
v 0.003556 0.556001 -0.004644
v -0.000631 0.556001 0.010981
v -0.027694 0.556001 -0.004644
v 0.003556 0.596001 -0.004644
v -0.027694 0.596001 -0.004644
v -0.000631 0.596001 0.010981
v -0.012069 0.556001 0.022420
v -0.012069 0.596001 0.022420
v -0.027694 0.556001 0.026606
v -0.027694 0.596001 0.026606
v -0.043319 0.556001 0.022420
v -0.043319 0.596001 0.022420
v -0.054757 0.556001 0.010981
v -0.054757 0.596001 0.010981
v -0.058944 0.556001 -0.004644
v -0.058944 0.596001 -0.004644
v -0.054757 0.556001 -0.020269
v -0.054757 0.596001 -0.020269
v -0.043319 0.556001 -0.031707
v -0.043319 0.596001 -0.031707
v -0.027694 0.556001 -0.035894
v -0.027694 0.596001 -0.035894
v -0.012069 0.556001 -0.031707
v -0.012069 0.596001 -0.031707
v -0.000631 0.556001 -0.020269
v -0.000631 0.596001 -0.020269
v -0.022694 0.588502 -0.008394
v 0.007306 0.596540 -0.008394
v 0.003287 0.596540 0.006606
v -0.022694 0.708502 -0.008394
v 0.003287 0.700463 0.006606
v 0.007306 0.700463 -0.008394
v -0.007694 0.596540 0.017587
v -0.007694 0.700463 0.017587
v -0.022694 0.596540 0.021606
v -0.022694 0.700463 0.021606
v -0.037694 0.596540 0.017587
v -0.037694 0.700463 0.017587
v -0.048675 0.596540 0.006606
v -0.048675 0.700463 0.006606
v -0.052694 0.596540 -0.008394
v -0.052694 0.700463 -0.008394
v -0.048675 0.596540 -0.023394
v -0.048675 0.700463 -0.023394
v -0.037694 0.596540 -0.034375
v -0.037694 0.700463 -0.034375
v -0.022694 0.596540 -0.038394
v -0.022694 0.700463 -0.038394
v -0.007694 0.596540 -0.034375
v -0.007694 0.700463 -0.034375
v 0.003287 0.596540 -0.023394
v 0.003287 0.700463 -0.023394
v 0.029268 0.618501 -0.008394
v 0.022306 0.618501 0.017587
v 0.003287 0.618501 0.036606
v -0.022694 0.618501 0.043568
v -0.048675 0.618501 0.036606
v -0.067694 0.618501 0.017587
v -0.074655 0.618501 -0.008394
v -0.067694 0.618501 -0.034375
v -0.048675 0.618501 -0.053394
v -0.022694 0.618501 -0.060355
v 0.003287 0.618501 -0.053394
v 0.022306 0.618501 -0.034375
v 0.037306 0.648501 -0.008394
v 0.029268 0.648501 0.021606
v 0.007306 0.648501 0.043568
v -0.022694 0.648501 0.051606
v -0.052694 0.648501 0.043568
v -0.074655 0.648501 0.021606
v -0.082694 0.648501 -0.008394
v -0.074655 0.648501 -0.038394
v -0.052694 0.648501 -0.060355
v -0.022694 0.648501 -0.068394
v 0.007306 0.648501 -0.060355
v 0.029268 0.648501 -0.038394
v 0.029268 0.678502 -0.008394
v 0.022306 0.678502 0.017587
v 0.003287 0.678502 0.036606
v -0.022694 0.678502 0.043568
v -0.048675 0.678502 0.036606
v -0.067694 0.678502 0.017587
v -0.074655 0.678502 -0.008394
v -0.067694 0.678502 -0.034375
v -0.048675 0.678502 -0.053394
v -0.022694 0.678502 -0.060355
v 0.003287 0.678502 -0.053394
v 0.022306 0.678502 -0.034375
v 0.159806 0.520735 0.012866
v 0.159806 0.297516 -0.143434
v 0.224806 0.520735 0.012866
v 0.224806 0.297516 -0.143434
v 0.224806 0.551874 -0.044681
v 0.224806 0.328655 -0.200981
v 0.159806 0.551874 -0.044681
v 0.159806 0.328655 -0.200981
v -0.257694 0.552640 -0.020066
v -0.257694 0.309841 0.103646
v -0.192694 0.552640 -0.020066
v -0.192694 0.309841 0.103646
v -0.192694 0.516448 -0.074577
v -0.192694 0.273649 0.049136
v -0.257694 0.516448 -0.074577
v -0.257694 0.273649 0.049136
v -0.132194 0.253236 0.045386
v -0.132194 0.006987 -0.029900
v -0.052194 0.253236 0.045386
v -0.052194 0.006987 -0.029900
v -0.052194 0.279016 -0.030388
v -0.052194 0.032768 -0.105674
v -0.132194 0.279016 -0.030388
v -0.132194 0.032768 -0.105674
v 0.026306 0.286765 0.033613
v 0.026306 0.057330 0.150515
v 0.106306 0.286765 0.033613
v 0.106306 0.057330 0.150515
v 0.106306 0.252673 -0.038803
v 0.106306 0.023239 0.078100
v 0.026306 0.252673 -0.038803
v 0.026306 0.023238 0.078100
v -0.200969 0.483234 -0.022581
v -0.201032 0.492585 -0.012194
v -0.201440 0.507288 -0.034837
v -0.148977 0.486209 -0.030894
v -0.149448 0.513205 -0.030894
v -0.149040 0.489826 -0.017394
v -0.174973 0.481560 -0.034844
v -0.175036 0.492990 -0.012400
v -0.201204 0.505876 -0.007875
v -0.149212 0.499707 -0.007511
v -0.175208 0.495464 -0.011701
v -0.201440 0.519545 -0.010779
v -0.149448 0.513205 -0.003894
v -0.175444 0.519949 -0.010985
v -0.201675 0.529930 -0.020130
v -0.149683 0.526703 -0.007511
v -0.175679 0.530334 -0.020336
v -0.201848 0.534247 -0.033422
v -0.149856 0.536584 -0.017394
v -0.175852 0.534652 -0.033628
v -0.201911 0.531341 -0.047093
v -0.149919 0.540201 -0.030894
v -0.175915 0.531745 -0.047299
v -0.201848 0.521990 -0.057479
v -0.149856 0.536584 -0.044394
v -0.175852 0.522394 -0.057685
v -0.201675 0.508699 -0.061799
v -0.149683 0.526703 -0.054277
v -0.175679 0.509103 -0.062005
v -0.201440 0.495030 -0.058894
v -0.149448 0.513205 -0.057894
v -0.175444 0.495434 -0.059100
v -0.201204 0.484645 -0.049543
v -0.149212 0.499707 -0.054277
v -0.175208 0.494648 -0.058459
v -0.201032 0.480328 -0.036251
v -0.149040 0.489826 -0.044394
v -0.175036 0.480732 -0.036457
v 0.117031 0.483302 -0.027894
v 0.116968 0.486919 -0.014394
v 0.116560 0.510298 -0.027894
v 0.169023 0.489803 -0.046332
v 0.168552 0.511917 -0.030847
v 0.168960 0.485022 -0.033199
v 0.143027 0.484965 -0.034927
v 0.142964 0.484651 -0.033459
v 0.116796 0.496800 -0.004511
v 0.168788 0.487448 -0.019436
v 0.142792 0.492406 -0.008973
v 0.116560 0.510298 -0.000894
v 0.168552 0.496430 -0.008730
v 0.142556 0.496058 -0.008991
v 0.116325 0.523796 -0.004511
v 0.168317 0.509562 -0.003951
v 0.142320 0.518600 -0.002442
v 0.116152 0.533677 -0.014394
v 0.168144 0.523325 -0.006379
v 0.142148 0.522953 -0.006639
v 0.116089 0.537294 -0.027894
v 0.168081 0.534030 -0.015363
v 0.142085 0.537353 -0.021865
v 0.116152 0.533677 -0.041394
v 0.168144 0.538811 -0.028496
v 0.142148 0.538439 -0.028757
v 0.116325 0.523796 -0.051277
v 0.168317 0.536385 -0.042259
v 0.142320 0.529913 -0.047819
v 0.116560 0.510298 -0.054894
v 0.168552 0.527403 -0.052965
v 0.142556 0.527031 -0.053225
v 0.116796 0.496800 -0.051277
v 0.168788 0.514272 -0.057744
v 0.142792 0.503719 -0.054349
v 0.116968 0.486919 -0.041394
v 0.168960 0.500509 -0.055316
v 0.142964 0.500137 -0.055576
# 204 vertices

vt 0.000000 1.000000
vt 0.000000 0.000000
vt 1.000000 1.000000
vt 1.000000 0.000000
vt 0.083333 0.000000
vt 0.083333 1.000000
vt 0.166667 1.000000
vt 0.166667 0.000000
vt 0.250000 0.000000
vt 0.250000 1.000000
vt 0.333333 1.000000
vt 0.333333 0.000000
vt 0.416667 0.000000
vt 0.416667 1.000000
vt 0.500000 1.000000
vt 0.500000 0.000000
vt 0.583333 0.000000
vt 0.583333 1.000000
vt 0.666667 1.000000
vt 0.666667 0.000000
vt 0.750000 0.000000
vt 0.750000 1.000000
vt 0.833333 1.000000
vt 0.833333 0.000000
vt 0.916667 0.000000
vt 0.916667 1.000000
vt 0.000000 0.166667
vt 0.083333 0.166667
vt 0.083333 0.833333
vt 0.000000 0.833333
vt 0.166667 0.166667
vt 0.166667 0.833333
vt 0.250000 0.166667
vt 0.250000 0.833333
vt 0.333333 0.166667
vt 0.333333 0.833333
vt 0.416667 0.166667
vt 0.416667 0.833333
vt 0.500000 0.166667
vt 0.500000 0.833333
vt 0.583333 0.166667
vt 0.583333 0.833333
vt 0.666667 0.166667
vt 0.666667 0.833333
vt 0.750000 0.166667
vt 0.750000 0.833333
vt 0.833333 0.166667
vt 0.833333 0.833333
vt 0.916667 0.166667
vt 0.916667 0.833333
vt 1.000000 0.166667
vt 1.000000 0.833333
vt 0.000000 0.333333
vt 0.083333 0.333333
vt 0.166667 0.333333
vt 0.250000 0.333333
vt 0.333333 0.333333
vt 0.416667 0.333333
vt 0.500000 0.333333
vt 0.583333 0.333333
vt 0.666667 0.333333
vt 0.750000 0.333333
vt 0.833333 0.333333
vt 0.916667 0.333333
vt 1.000000 0.333333
vt 0.000000 0.500000
vt 0.083333 0.500000
vt 0.166667 0.500000
vt 0.250000 0.500000
vt 0.333333 0.500000
vt 0.416667 0.500000
vt 0.500000 0.500000
vt 0.583333 0.500000
vt 0.666667 0.500000
vt 0.750000 0.500000
vt 0.833333 0.500000
vt 0.916667 0.500000
vt 1.000000 0.500000
vt 0.000000 0.666667
vt 0.083333 0.666667
vt 0.166667 0.666667
vt 0.250000 0.666667
vt 0.333333 0.666667
vt 0.416667 0.666667
vt 0.500000 0.666667
vt 0.583333 0.666667
vt 0.666667 0.666667
vt 0.750000 0.666667
vt 0.833333 0.666667
vt 0.916667 0.666667
vt 1.000000 0.666667
# 91 texture coordinates

vn 0.000000 0.000000 1.000000
vn 1.000000 0.000000 0.000000
vn 0.000000 0.000000 -1.000000
vn -1.000000 0.000000 0.000000
vn 0.000000 0.999874 0.015870
vn 0.000000 -0.999874 -0.015871
vn 0.000000 -1.000000 0.000000
vn 0.000000 1.000000 0.000000
vn 0.866027 0.000000 0.499997
vn 0.500001 0.000000 0.866025
vn -0.500001 0.000000 0.866025
vn -0.866027 0.000000 0.499997
vn -0.866024 0.000000 -0.500003
vn -0.500001 0.000000 -0.866025
vn 0.500001 0.000000 -0.866025
vn 0.866024 0.000000 -0.500002
vn 0.573583 -0.819147 -0.000000
vn 0.431481 -0.867044 0.249117
vn 0.431481 0.867044 0.249117
vn 0.573583 0.819147 -0.000000
vn 0.286793 -0.819147 0.496737
vn 0.286793 0.819147 0.496737
vn -0.000000 -0.867044 0.498232
vn -0.000000 0.867044 0.498232
vn -0.286793 -0.819147 0.496737
vn -0.286793 0.819147 0.496737
vn -0.431480 -0.867044 0.249117
vn -0.431480 0.867044 0.249117
vn -0.573583 -0.819147 -0.000000
vn -0.573583 0.819147 -0.000000
vn -0.431481 -0.867044 -0.249116
vn -0.431481 0.867044 -0.249116
vn -0.286792 -0.819147 -0.496738
vn -0.286792 0.819147 -0.496738
vn -0.000000 -0.867044 -0.498231
vn -0.000000 0.867044 -0.498231
vn 0.286792 -0.819147 -0.496738
vn 0.286792 0.819147 -0.496738
vn 0.431481 -0.867044 -0.249115
vn 0.431481 0.867044 -0.249115
vn 0.865033 -0.501715 0.000000
vn 0.749141 -0.501715 0.432516
vn 0.432517 -0.501716 0.749140
vn -0.000000 -0.501715 0.865033
vn -0.432517 -0.501716 0.749140
vn -0.749141 -0.501716 0.432516
vn -0.865033 -0.501715 0.000000
vn -0.749140 -0.501715 -0.432517
vn -0.432517 -0.501716 -0.749140
vn -0.000000 -0.501715 -0.865033
vn 0.432517 -0.501716 -0.749140
vn 0.749140 -0.501715 -0.432517
vn 0.865033 0.501714 0.000000
vn 0.749141 0.501715 0.432516
vn 0.432517 0.501715 0.749140
vn -0.000000 0.501714 0.865034
vn -0.432517 0.501715 0.749140
vn -0.749141 0.501715 0.432516
vn -0.865033 0.501714 0.000000
vn -0.749140 0.501715 -0.432517
vn -0.432517 0.501715 -0.749140
vn -0.000000 0.501714 -0.865033
vn 0.432517 0.501715 -0.749140
vn 0.749141 0.501714 -0.432517
vn 0.000000 -0.573577 0.819152
vn 0.000000 0.573577 -0.819152
vn 0.000000 0.879498 0.475903
vn 0.000000 -0.879498 -0.475903
vn 0.000000 0.453991 0.891006
vn 0.000000 -0.453990 -0.891007
vn 0.000000 0.833095 -0.553129
vn 0.000000 -0.833097 0.553128
vn 0.000000 -0.292372 0.956305
vn 0.000000 0.292372 -0.956305
vn 0.000000 0.946706 0.322099
vn 0.000000 -0.946706 -0.322098
vn 0.000000 0.904752 -0.425939
vn 0.000000 -0.904751 0.425940
vn -0.999848 -0.015551 0.007923
vn 0.999848 0.017451 0.000000
vn 0.087342 -0.887849 0.451769
vn 0.122281 -0.884567 0.450098
vn 0.024540 -0.681692 0.731228
vn 0.015118 -0.544523 0.838610
vn 0.095336 -0.966209 0.239483
vn -0.009290 -0.865868 0.500186
vn 0.047395 -0.101964 0.993658
vn -0.023953 -0.153483 0.987861
vn -0.138197 -0.331141 0.933406
vn -0.108029 0.288427 0.951388
vn -0.263178 -0.000012 0.964747
vn -0.008728 0.838598 0.544681
vn -0.078622 0.836729 0.541943
vn -0.248544 0.665639 0.703669
vn -0.124736 0.979230 0.159845
vn -0.015116 0.998512 0.052402
vn -0.349239 0.815104 0.462210
vn -0.017454 0.890870 -0.453922
vn -0.010678 0.891101 -0.453679
vn -0.163341 0.959130 -0.231064
vn -0.026601 0.633655 -0.773158
vn -0.015115 0.544522 -0.838610
vn -0.205066 0.842401 -0.498305
vn -0.008726 0.052269 -0.998595
vn 0.117698 0.059143 -0.991287
vn 0.084414 0.294115 -0.952035
vn 0.091894 -0.328805 -0.939916
vn 0.044479 0.002733 -0.999007
vn 0.035153 -0.795141 -0.605406
vn 0.153236 -0.730274 -0.665747
vn 0.188905 -0.610093 -0.769481
vn 0.130955 -0.976851 -0.169151
vn 0.015116 -0.998512 -0.052398
vn 0.146522 -0.854206 -0.498861
vn -0.999848 -0.017453 0.000000
vn 0.999848 0.014297 0.010011
vn 0.088738 -0.973755 -0.209586
vn -0.030711 -0.912290 -0.408391
vn 0.064521 -0.990218 0.123712
vn 0.273972 -0.837284 0.473176
vn 0.004162 -0.870181 -0.492715
vn 0.015114 -0.996087 -0.087079
vn 0.184197 -0.525237 0.830781
vn 0.120988 -0.589843 0.798402
vn 0.098903 -0.790695 0.604168
vn 0.126082 -0.217974 0.967776
vn 0.294780 -0.005188 0.955551
vn 0.123465 0.383894 0.915086
vn 0.053545 0.237005 0.970032
vn 0.060176 0.062920 0.996203
vn 0.062670 0.691271 0.719873
vn 0.201615 0.845841 0.493867
vn -0.015115 0.422511 0.906232
vn 0.015778 0.974734 0.222810
vn -0.049751 0.896561 0.440117
vn -0.006732 0.860372 0.509623
vn -0.016046 0.985101 -0.171226
vn 0.082059 0.865105 -0.494833
vn -0.015114 0.996087 0.087072
vn -0.052523 0.731900 -0.679385
vn -0.139040 0.888076 -0.438166
vn -0.069340 0.899420 -0.431549
vn -0.059242 0.417835 -0.906589
vn 0.061747 0.003629 -0.998085
vn -0.035070 -0.165563 -0.985575
vn -0.180100 0.178273 -0.967359
vn -0.096340 0.133375 -0.986372
vn -0.047899 -0.512245 -0.857503
vn 0.159557 -0.850857 -0.500583
vn 0.015117 -0.422510 -0.906232
# 150 normals

g Regroup01
usemtl Material02
s 1
f 1/1/1 2/2/1 3/3/1
f 2/2/1 4/4/1 3/3/1
s 2
f 3/1/2 4/2/2 5/3/2
f 4/2/2 6/4/2 5/3/2
s 1
f 5/1/3 6/2/3 7/3/3
f 6/2/3 8/4/3 7/3/3
s 2
f 7/1/4 8/2/4 1/3/4
f 8/2/4 2/4/4 1/3/4
s 3
f 7/1/5 1/2/5 5/3/5
f 1/2/5 3/4/5 5/3/5
f 2/1/6 8/2/6 4/3/6
f 8/2/6 6/4/6 4/3/6
s 2
f 9/1/7 10/1/7 11/1/7
f 12/1/8 13/1/8 14/1/8
s 1
f 9/2/2 12/1/2 10/5/9
f 12/1/2 14/6/9 10/5/9
s 2
f 10/1/7 15/1/7 11/1/7
f 14/1/8 13/1/8 16/1/8
s 1
f 10/5/9 14/6/9 16/7/10
f 10/5/9 16/7/10 15/8/10
s 2
f 15/1/7 17/1/7 11/1/7
f 16/1/8 13/1/8 18/1/8
s 1
f 15/8/10 16/7/10 17/9/1
f 16/7/10 18/10/1 17/9/1
s 2
f 17/1/7 19/1/7 11/1/7
f 18/1/8 13/1/8 20/1/8
s 1
f 17/9/1 18/10/1 20/11/11
f 17/9/1 20/11/11 19/12/11
s 2
f 19/1/7 21/1/7 11/1/7
f 20/1/8 13/1/8 22/1/8
s 1
f 19/12/11 20/11/11 21/13/12
f 20/11/11 22/14/12 21/13/12
s 2
f 21/1/7 23/1/7 11/1/7
f 22/1/8 13/1/8 24/1/8
s 1
f 21/13/12 22/14/12 24/15/4
f 21/13/12 24/15/4 23/16/4
s 2
f 23/1/7 25/1/7 11/1/7
f 24/1/8 13/1/8 26/1/8
s 1
f 23/16/4 24/15/4 25/17/13
f 24/15/4 26/18/13 25/17/13
s 2
f 25/1/7 27/1/7 11/1/7
f 26/1/8 13/1/8 28/1/8
s 1
f 25/17/13 26/18/13 28/19/14
f 25/17/13 28/19/14 27/20/14
s 2
f 27/1/7 29/1/7 11/1/7
f 28/1/8 13/1/8 30/1/8
s 1
f 27/20/14 28/19/14 29/21/3
f 28/19/14 30/22/3 29/21/3
s 2
f 29/1/7 31/1/7 11/1/7
f 30/1/8 13/1/8 32/1/8
s 1
f 29/21/3 30/22/3 32/23/15
f 29/21/3 32/23/15 31/24/15
s 2
f 31/1/7 33/1/7 11/1/7
f 32/1/8 13/1/8 34/1/8
s 1
f 31/24/15 32/23/15 33/25/16
f 32/23/15 34/26/16 33/25/16
s 2
f 33/1/7 9/1/7 11/1/7
f 34/1/8 13/1/8 12/1/8
s 1
f 33/25/16 34/26/16 12/3/2
f 33/25/16 12/3/2 9/4/2
f 35/2/7 36/27/17 37/28/18
f 38/1/8 39/29/19 40/30/20
f 35/5/7 37/28/18 41/31/21
f 38/6/8 42/32/22 39/29/19
f 35/8/7 41/31/21 43/33/23
f 38/7/8 44/34/24 42/32/22
f 35/9/7 43/33/23 45/35/25
f 38/10/8 46/36/26 44/34/24
f 35/12/7 45/35/25 47/37/27
f 38/11/8 48/38/28 46/36/26
f 35/13/7 47/37/27 49/39/29
f 38/14/8 50/40/30 48/38/28
f 35/16/7 49/39/29 51/41/31
f 38/15/8 52/42/32 50/40/30
f 35/17/7 51/41/31 53/43/33
f 38/18/8 54/44/34 52/42/32
f 35/20/7 53/43/33 55/45/35
f 38/19/8 56/46/36 54/44/34
f 35/21/7 55/45/35 57/47/37
f 38/22/8 58/48/38 56/46/36
f 35/24/7 57/47/37 59/49/39
f 38/23/8 60/50/40 58/48/38
f 35/25/7 59/49/39 36/51/17
f 38/26/8 40/52/20 60/50/40
f 36/27/17 61/53/41 62/54/42
f 36/27/17 62/54/42 37/28/18
f 37/28/18 62/54/42 41/31/21
f 62/54/42 63/55/43 41/31/21
f 41/31/21 63/55/43 64/56/44
f 41/31/21 64/56/44 43/33/23
f 43/33/23 64/56/44 45/35/25
f 64/56/44 65/57/45 45/35/25
f 45/35/25 65/57/45 66/58/46
f 45/35/25 66/58/46 47/37/27
f 47/37/27 66/58/46 49/39/29
f 66/58/46 67/59/47 49/39/29
f 49/39/29 67/59/47 68/60/48
f 49/39/29 68/60/48 51/41/31
f 51/41/31 68/60/48 53/43/33
f 68/60/48 69/61/49 53/43/33
f 53/43/33 69/61/49 70/62/50
f 53/43/33 70/62/50 55/45/35
f 55/45/35 70/62/50 57/47/37
f 70/62/50 71/63/51 57/47/37
f 57/47/37 71/63/51 72/64/52
f 57/47/37 72/64/52 59/49/39
f 59/49/39 72/64/52 36/51/17
f 72/64/52 61/65/41 36/51/17
f 61/53/41 73/66/2 62/54/42
f 73/66/2 74/67/9 62/54/42
f 62/54/42 74/67/9 75/68/10
f 62/54/42 75/68/10 63/55/43
f 63/55/43 75/68/10 64/56/44
f 75/68/10 76/69/1 64/56/44
f 64/56/44 76/69/1 77/70/11
f 64/56/44 77/70/11 65/57/45
f 65/57/45 77/70/11 66/58/46
f 77/70/11 78/71/12 66/58/46
f 66/58/46 78/71/12 79/72/4
f 66/58/46 79/72/4 67/59/47
f 67/59/47 79/72/4 68/60/48
f 79/72/4 80/73/13 68/60/48
f 68/60/48 80/73/13 81/74/14
f 68/60/48 81/74/14 69/61/49
f 69/61/49 81/74/14 70/62/50
f 81/74/14 82/75/3 70/62/50
f 70/62/50 82/75/3 83/76/15
f 70/62/50 83/76/15 71/63/51
f 71/63/51 83/76/15 72/64/52
f 83/76/15 84/77/16 72/64/52
f 72/64/52 84/77/16 73/78/2
f 72/64/52 73/78/2 61/65/41
f 73/66/2 85/79/53 86/80/54
f 73/66/2 86/80/54 74/67/9
f 74/67/9 86/80/54 75/68/10
f 86/80/54 87/81/55 75/68/10
f 75/68/10 87/81/55 88/82/56
f 75/68/10 88/82/56 76/69/1
f 76/69/1 88/82/56 77/70/11
f 88/82/56 89/83/57 77/70/11
f 77/70/11 89/83/57 90/84/58
f 77/70/11 90/84/58 78/71/12
f 78/71/12 90/84/58 79/72/4
f 90/84/58 91/85/59 79/72/4
f 79/72/4 91/85/59 92/86/60
f 79/72/4 92/86/60 80/73/13
f 80/73/13 92/86/60 81/74/14
f 92/86/60 93/87/61 81/74/14
f 81/74/14 93/87/61 94/88/62
f 81/74/14 94/88/62 82/75/3
f 82/75/3 94/88/62 83/76/15
f 94/88/62 95/89/63 83/76/15
f 83/76/15 95/89/63 96/90/64
f 83/76/15 96/90/64 84/77/16
f 84/77/16 96/90/64 73/78/2
f 96/90/64 85/91/53 73/78/2
f 85/79/53 40/30/20 86/80/54
f 40/30/20 39/29/19 86/80/54
f 86/80/54 39/29/19 42/32/22
f 86/80/54 42/32/22 87/81/55
f 87/81/55 42/32/22 88/82/56
f 42/32/22 44/34/24 88/82/56
f 88/82/56 44/34/24 46/36/26
f 88/82/56 46/36/26 89/83/57
f 89/83/57 46/36/26 90/84/58
f 46/36/26 48/38/28 90/84/58
f 90/84/58 48/38/28 50/40/30
f 90/84/58 50/40/30 91/85/59
f 91/85/59 50/40/30 92/86/60
f 50/40/30 52/42/32 92/86/60
f 92/86/60 52/42/32 54/44/34
f 92/86/60 54/44/34 93/87/61
f 93/87/61 54/44/34 94/88/62
f 54/44/34 56/46/36 94/88/62
f 94/88/62 56/46/36 58/48/38
f 94/88/62 58/48/38 95/89/63
f 95/89/63 58/48/38 96/90/64
f 58/48/38 60/50/40 96/90/64
f 96/90/64 60/50/40 40/52/20
f 96/90/64 40/52/20 85/91/53
f 97/1/65 98/2/65 99/3/65
f 98/2/65 100/4/65 99/3/65
s 2
f 99/1/2 100/2/2 101/3/2
f 100/2/2 102/4/2 101/3/2
s 1
f 101/1/66 102/2/66 103/3/66
f 102/2/66 104/4/66 103/3/66
s 2
f 103/1/4 104/2/4 97/3/4
f 104/2/4 98/4/4 97/3/4
s 3
f 103/1/67 97/2/67 101/3/67
f 97/2/67 99/4/67 101/3/67
f 98/1/68 104/2/68 100/3/68
f 104/2/68 102/4/68 100/3/68
s 1
f 105/1/69 106/2/69 107/3/69
f 106/2/69 108/4/69 107/3/69
s 2
f 107/1/2 108/2/2 109/3/2
f 108/2/2 110/4/2 109/3/2
s 1
f 109/1/70 110/2/70 111/3/70
f 110/2/70 112/4/70 111/3/70
s 2
f 111/1/4 112/2/4 105/3/4
f 112/2/4 106/4/4 105/3/4
s 3
f 111/1/71 105/2/71 109/3/71
f 105/2/71 107/4/71 109/3/71
f 106/1/72 112/2/72 108/3/72
f 112/2/72 110/4/72 108/3/72
s 1
f 113/1/73 114/2/73 115/3/73
f 114/2/73 116/4/73 115/3/73
s 2
f 115/1/2 116/2/2 117/3/2
f 116/2/2 118/4/2 117/3/2
s 1
f 117/1/74 118/2/74 119/3/74
f 118/2/74 120/4/74 119/3/74
s 2
f 119/1/4 120/2/4 113/3/4
f 120/2/4 114/4/4 113/3/4
s 3
f 119/1/75 113/2/75 117/3/75
f 113/2/75 115/4/75 117/3/75
f 114/1/76 120/2/76 116/3/76
f 120/2/76 118/4/76 116/3/76
s 1
f 121/1/69 122/2/69 123/3/69
f 122/2/69 124/4/69 123/3/69
s 2
f 123/1/2 124/2/2 125/3/2
f 124/2/2 126/4/2 125/3/2
s 1
f 125/1/70 126/2/70 127/3/70
f 126/2/70 128/4/70 127/3/70
s 2
f 127/1/4 128/2/4 121/3/4
f 128/2/4 122/4/4 121/3/4
s 3
f 127/1/77 121/2/77 125/3/77
f 121/2/77 123/4/77 125/3/77
f 122/1/78 128/2/78 124/3/78
f 128/2/78 126/4/78 124/3/78
s 2
f 129/1/79 130/1/79 131/1/79
f 132/1/80 133/1/80 134/1/80
s 1
f 129/2/81 135/66/82 136/67/83
f 129/2/81 136/67/83 130/5/84
f 135/66/82 132/1/85 136/67/83
f 132/1/85 134/6/86 136/67/83
s 2
f 130/1/79 137/1/79 131/1/79
f 134/1/80 133/1/80 138/1/80
s 1
f 130/5/84 136/67/83 137/8/87
f 136/67/83 139/68/88 137/8/87
f 136/67/83 134/6/86 138/7/89
f 136/67/83 138/7/89 139/68/88
s 2
f 137/1/79 140/1/79 131/1/79
f 138/1/80 133/1/80 141/1/80
s 1
f 137/8/87 139/68/88 142/69/90
f 137/8/87 142/69/90 140/9/69
f 139/68/88 138/7/89 142/69/90
f 138/7/89 141/10/91 142/69/90
s 2
f 140/1/79 143/1/79 131/1/79
f 141/1/80 133/1/80 144/1/80
s 1
f 140/9/69 142/69/90 143/12/92
f 142/69/90 145/70/93 143/12/92
f 142/69/90 141/10/91 144/11/94
f 142/69/90 144/11/94 145/70/93
s 2
f 143/1/79 146/1/79 131/1/79
f 144/1/80 133/1/80 147/1/80
s 1
f 143/12/92 145/70/93 148/71/95
f 143/12/92 148/71/95 146/13/96
f 145/70/93 144/11/94 148/71/95
f 144/11/94 147/14/97 148/71/95
s 2
f 146/1/79 149/1/79 131/1/79
f 147/1/80 133/1/80 150/1/80
s 1
f 146/13/96 148/71/95 149/16/98
f 148/71/95 151/72/99 149/16/98
f 148/71/95 147/14/97 150/15/100
f 148/71/95 150/15/100 151/72/99
s 2
f 149/1/79 152/1/79 131/1/79
f 150/1/80 133/1/80 153/1/80
s 1
f 149/16/98 151/72/99 154/73/101
f 149/16/98 154/73/101 152/17/102
f 151/72/99 150/15/100 154/73/101
f 150/15/100 153/18/103 154/73/101
s 2
f 152/1/79 155/1/79 131/1/79
f 153/1/80 133/1/80 156/1/80
s 1
f 152/17/102 154/73/101 155/20/104
f 154/73/101 157/74/105 155/20/104
f 154/73/101 153/18/103 156/19/106
f 154/73/101 156/19/106 157/74/105
s 2
f 155/1/79 158/1/79 131/1/79
f 156/1/80 133/1/80 159/1/80
s 1
f 155/20/104 157/74/105 160/75/107
f 155/20/104 160/75/107 158/21/70
f 157/74/105 156/19/106 160/75/107
f 156/19/106 159/22/108 160/75/107
s 2
f 158/1/79 161/1/79 131/1/79
f 159/1/80 133/1/80 162/1/80
s 1
f 158/21/70 160/75/107 161/24/109
f 160/75/107 163/76/110 161/24/109
f 160/75/107 159/22/108 162/23/111
f 160/75/107 162/23/111 163/76/110
s 2
f 161/1/79 164/1/79 131/1/79
f 162/1/80 133/1/80 165/1/80
s 1
f 161/24/109 163/76/110 166/77/112
f 161/24/109 166/77/112 164/25/113
f 163/76/110 162/23/111 166/77/112
f 162/23/111 165/26/114 166/77/112
s 2
f 164/1/79 129/1/79 131/1/79
f 165/1/80 133/1/80 132/1/80
s 1
f 164/25/113 166/77/112 129/4/81
f 166/77/112 135/78/82 129/4/81
f 166/77/112 165/26/114 132/3/85
f 166/77/112 132/3/85 135/78/82
s 2
f 167/1/115 168/1/115 169/1/115
f 170/1/116 171/1/116 172/1/116
s 1
f 167/2/117 173/66/118 174/67/119
f 167/2/117 174/67/119 168/5/120
f 173/66/118 170/1/121 174/67/119
f 170/1/121 172/6/122 174/67/119
s 2
f 168/1/115 175/1/115 169/1/115
f 172/1/116 171/1/116 176/1/116
s 1
f 168/5/120 174/67/119 175/8/123
f 174/67/119 177/68/124 175/8/123
f 174/67/119 172/6/122 176/7/125
f 174/67/119 176/7/125 177/68/124
s 2
f 175/1/115 178/1/115 169/1/115
f 176/1/116 171/1/116 179/1/116
s 1
f 175/8/123 177/68/124 180/69/126
f 175/8/123 180/69/126 178/9/127
f 177/68/124 176/7/125 180/69/126
f 176/7/125 179/10/65 180/69/126
s 2
f 178/1/115 181/1/115 169/1/115
f 179/1/116 171/1/116 182/1/116
s 1
f 178/9/127 180/69/126 181/12/128
f 180/69/126 183/70/129 181/12/128
f 180/69/126 179/10/65 182/11/130
f 180/69/126 182/11/130 183/70/129
s 2
f 181/1/115 184/1/115 169/1/115
f 182/1/116 171/1/116 185/1/116
s 1
f 181/12/128 183/70/129 186/71/131
f 181/12/128 186/71/131 184/13/132
f 183/70/129 182/11/130 186/71/131
f 182/11/130 185/14/133 186/71/131
s 2
f 184/1/115 187/1/115 169/1/115
f 185/1/116 171/1/116 188/1/116
s 1
f 184/13/132 186/71/131 187/16/134
f 186/71/131 189/72/135 187/16/134
f 186/71/131 185/14/133 188/15/136
f 186/71/131 188/15/136 189/72/135
s 2
f 187/1/115 190/1/115 169/1/115
f 188/1/116 171/1/116 191/1/116
s 1
f 187/16/134 189/72/135 192/73/137
f 187/16/134 192/73/137 190/17/138
f 189/72/135 188/15/136 192/73/137
f 188/15/136 191/18/139 192/73/137
s 2
f 190/1/115 193/1/115 169/1/115
f 191/1/116 171/1/116 194/1/116
s 1
f 190/17/138 192/73/137 193/20/140
f 192/73/137 195/74/141 193/20/140
f 192/73/137 191/18/139 194/19/142
f 192/73/137 194/19/142 195/74/141
s 2
f 193/1/115 196/1/115 169/1/115
f 194/1/116 171/1/116 197/1/116
s 1
f 193/20/140 195/74/141 198/75/143
f 193/20/140 198/75/143 196/21/144
f 195/74/141 194/19/142 198/75/143
f 194/19/142 197/22/66 198/75/143
s 2
f 196/1/115 199/1/115 169/1/115
f 197/1/116 171/1/116 200/1/116
s 1
f 196/21/144 198/75/143 199/24/145
f 198/75/143 201/76/146 199/24/145
f 198/75/143 197/22/66 200/23/147
f 198/75/143 200/23/147 201/76/146
s 2
f 199/1/115 202/1/115 169/1/115
f 200/1/116 171/1/116 203/1/116
s 1
f 199/24/145 201/76/146 204/77/148
f 199/24/145 204/77/148 202/25/149
f 201/76/146 200/23/147 204/77/148
f 200/23/147 203/26/150 204/77/148
s 2
f 202/1/115 167/1/115 169/1/115
f 203/1/116 171/1/116 170/1/116
s 1
f 202/25/149 204/77/148 167/4/117
f 204/77/148 173/78/118 167/4/117
f 204/77/148 203/26/150 170/3/121
f 204/77/148 170/3/121 173/78/118
# 372 triangles in group

# 372 triangles total

